<svg id="Layer_1" xmlns="http://www.w3.org/2000/svg" viewBox="0 0 3929.3 1500"><g fill="#FFF"><path d="M672.4 914.8V570H445.6c-3.9 8.8-12.7 15-22.9 15-13.8 0-25-11.2-25-25s11.2-25 25-25c10.3 0 19.1 6.2 22.9 15h246.8v364.8h272c2.5-5.8 7.1-10.4 12.9-12.9V762.2H849.1c-3.9 8.8-12.7 15-22.9 15-13.8 0-25-11.2-25-25s11.2-25 25-25c10.3 0 19.1 6.2 22.9 15h128.2V454.6H739.2v-227c-5.8-2.5-10.4-7.1-12.9-12.9h-297v152.6h128.2c3.9-8.8 12.7-15 22.9-15 13.8 0 25 11.2 25 25s-11.2 25-25 25c-10.3 0-19.1-6.2-22.9-15H409.3V214.7H299V580H126.5v117.8c5.8 2.5 10.4 7.1 12.9 12.9H502c3.9-8.8 12.7-15 22.9-15 13.8 0 25 11.2 25 25 0 10.3-6.2 19.1-15 22.9v171.3h137.5v-.1z"/><path d="M692.4 1087.4H1057.7v231.2h392.5v-91c-5.8-2.5-10.4-7.1-12.9-12.9H1235.7v-267c-8.8-3.9-15-12.7-15-22.9 0-13.8 11.2-25 25-25s25 11.2 25 25c0 10.3-6.2 19.1-15 22.9v247H1437.3c2.5-5.8 7.1-10.4 12.9-12.9V762.3h-180.3c-3.9 8.8-12.7 15-22.9 15-13.8 0-25-11.2-25-25 0-10.3 6.2-19.1 15-22.9V454.6H997.3v447.3c8.8 3.9 15 12.7 15 22.9 0 13.8-11.2 25-25 25-10.3 0-19.1-6.2-22.9-15h-272v152.6zM726.2 194.7c3.9-8.8 12.7-15 22.9-15 13.8 0 25 11.2 25 25 0 10.3-6.2 19.1-15 22.9v207h218.2V293.7h194.2V144.2h-100.9c-3.9 8.8-12.7 15-22.9 15-13.8 0-25-11.2-25-25 0-10.3 6.2-19.1 15-22.9V0h-496v194.7h184.5z"/><path d="M1070.6 124.2h120.9v189.5H997.3v120.9H1257v294.7c5.8 2.5 10.4 7.1 12.9 12.9h180.3V185.5h206.3c2.5-5.8 7.1-10.4 12.9-12.9V0h-611.7v111.3c5.7 2.5 10.3 7.2 12.9 12.9zM508.8 1095.9H330.6v258.4H171c-3.9 8.8-12.7 15-22.9 15-13.8 0-25-11.2-25-25s11.2-25 25-25c10.3 0 19.1 6.2 22.9 15h139.7V934.8H158.1V1063c8.8 3.9 15 12.7 15 22.9 0 13.8-11.2 25-25 25s-25-11.2-25-25c0-10.3 6.2-19.1 15-22.9V914.8h172.6V730.7H139.4c-3.9 8.8-12.7 15-22.9 15-13.8 0-25-11.2-25-25 0-10.3 6.2-19.1 15-22.9V281.1c-8.8-3.9-15-12.7-15-22.9 0-13.8 11.2-25 25-25s25 11.2 25 25c0 10.3-6.2 19.1-15 22.9V560H279V194.7h242.7V0H0v1500h521.7v-391.2c-5.7-2.5-10.3-7.1-12.9-12.9z"/><path d="M705.3 1338.7c-3.9 8.8-12.7 15-22.9 15-13.8 0-25-11.2-25-25s11.2-25 25-25c10.3 0 19.1 6.2 22.9 15h332.3v-211.2H672.4V934.8H514.8V743.6c-5.8-2.5-10.4-7.1-12.9-12.9H330.6v345.2h178.2c3.9-8.8 12.7-15 22.9-15 13.8 0 25 11.2 25 25 0 10.3-6.2 19.1-15 22.9V1500h495.9v-161.3H705.3zM1669.4 1319.6v-104.9h-186.3c-2.5 5.8-7.1 10.4-12.9 12.9v111h-412.5V1500h611.7v-180.4z"/><path d="M2000 0h-310.6v172.6c8.8 3.9 15 12.7 15 22.9 0 13.8-11.2 25-25 25-10.3 0-19.1-6.2-22.9-15h-186.3v343.2h219.2v181.6c8.8 3.9 15 12.7 15 22.9 0 13.8-11.2 25-25 25s-25-11.2-25-25c0-10.3 6.2-19.1 15-22.9V568.7h-199.2v613.2c5.8 2.5 10.4 7.1 12.9 12.9h186.3v-220c-8.8-3.9-15-12.7-15-22.9 0-13.8 11.2-25 25-25 10.3 0 19.1 6.2 22.9 15h171.3V413.1h-128.2c-3.9 8.8-12.7 15-22.9 15-13.8 0-25-11.2-25-25s11.2-25 25-25c10.3 0 19.1 6.2 22.9 15h148.2v568.8h-191.3c-2.5 5.8-7.1 10.4-12.9 12.9v334.8h184.2v-179.3c-8.8-3.9-15-12.7-15-22.9 0-13.8 11.2-25 25-25s25 11.2 25 25c0 10.3-6.2 19.1-15 22.9v199.3h-204.2V1500H2000V0zM1057.7-240.6H788v20h249.7V0h20zM541.7-170.1H272v20h249.7V0h20zM521.7 1500h20v48.4h-20zM1037.7 1500h20v59.9h-20zM1669.4 1500h20v48.4h-20zM1689.4-179.3h-269.7v20h249.7V0h20z"/></g><g fill="#FFF"><path d="M3256.9 584.8v344.8h226.8c3.9-8.8 12.7-15 22.9-15 13.8 0 25 11.2 25 25s-11.2 25-25 25c-10.3 0-19.1-6.2-22.9-15h-246.8V584.8h-272c-2.5 5.8-7.1 10.4-12.9 12.9v139.7h128.2c3.9-8.8 12.7-15 22.9-15 13.8 0 25 11.2 25 25s-11.2 25-25 25c-10.3 0-19.1-6.2-22.9-15H2952V1045h238.1v227c5.8 2.5 10.4 7.1 12.9 12.9h297v-152.6h-128.2c-3.9 8.8-12.7 15-22.9 15-13.8 0-25-11.2-25-25s11.2-25 25-25c10.3 0 19.1 6.2 22.9 15H3520v172.6h110.3V919.6h172.5V801.8c-5.8-2.5-10.4-7.1-12.9-12.9h-362.6c-3.9 8.8-12.7 15-22.9 15-13.8 0-25-11.2-25-25 0-10.3 6.2-19.1 15-22.9V584.7h-137.5v.1z"/><path d="M3236.9 412.2H2871.6V181h-392.5v91c5.8 2.5 10.4 7.1 12.9 12.9H2693.6v267c8.8 3.9 15 12.7 15 22.9 0 13.8-11.2 25-25 25s-25-11.2-25-25c0-10.3 6.2-19.1 15-22.9v-247H2492c-2.5 5.8-7.1 10.4-12.9 12.9v419.5h180.3c3.9-8.8 12.7-15 22.9-15 13.8 0 25 11.2 25 25 0 10.3-6.2 19.1-15 22.9V1045H2932V597.7c-8.8-3.9-15-12.7-15-22.9 0-13.8 11.2-25 25-25 10.3 0 19.1 6.2 22.9 15h272V412.2zM3203.1 1304.9c-3.9 8.8-12.7 15-22.9 15-13.8 0-25-11.2-25-25 0-10.3 6.2-19.1 15-22.9v-207H2952v140.9h-194.2v149.5h100.9c3.9-8.8 12.7-15 22.9-15 13.8 0 25 11.2 25 25 0 10.3-6.2 19.1-15 22.9v111.3h496v-194.7h-184.5z"/><path d="M2858.7 1375.4h-120.9v-189.5H2932V1065h-259.7V770.3c-5.8-2.5-10.4-7.1-12.9-12.9h-180.3v556.7h-206.3c-2.5 5.8-7.1 10.4-12.9 12.9v172.6h611.7v-111.3c-5.7-2.5-10.3-7.2-12.9-12.9zM3420.5 403.7h178.2V145.3h159.6c3.9-8.8 12.7-15 22.9-15 13.8 0 25 11.2 25 25s-11.2 25-25 25c-10.3 0-19.1-6.2-22.9-15h-139.7v399.5h152.6V436.6c-8.8-3.9-15-12.7-15-22.9 0-13.8 11.2-25 25-25s25 11.2 25 25c0 10.3-6.2 19.1-15 22.9v148.2h-172.6v184.1h171.3c3.9-8.8 12.7-15 22.9-15 13.8 0 25 11.2 25 25 0 10.3-6.2 19.1-15 22.9v416.7c8.8 3.9 15 12.7 15 22.9 0 13.8-11.2 25-25 25s-25-11.2-25-25c0-10.3 6.2-19.1 15-22.9V939.6h-152.5v365.3h-242.7v194.7h521.7V-.4h-521.7v391.2c5.7 2.5 10.3 7.1 12.9 12.9z"/><path d="M3224 160.9c3.9-8.8 12.7-15 22.9-15 13.8 0 25 11.2 25 25s-11.2 25-25 25c-10.3 0-19.1-6.2-22.9-15h-332.3v211.2h365.2v172.7h157.6V756c5.8 2.5 10.4 7.1 12.9 12.9h171.3V423.7h-178.2c-3.9 8.8-12.7 15-22.9 15-13.8 0-25-11.2-25-25 0-10.3 6.2-19.1 15-22.9V-.4h-495.9v161.3H3224zM2259.9 180v104.9h186.3c2.5-5.8 7.1-10.4 12.9-12.9V161h412.5V-.4h-611.7V180z"/><path d="M1929.3 1499.6h310.6V1327c-8.8-3.9-15-12.7-15-22.9 0-13.8 11.2-25 25-25 10.3 0 19.1 6.2 22.9 15h186.3V950.9h-219.2V769.3c-8.8-3.9-15-12.7-15-22.9 0-13.8 11.2-25 25-25s25 11.2 25 25c0 10.3-6.2 19.1-15 22.9v161.6h199.2V317.7c-5.8-2.5-10.4-7.1-12.9-12.9h-186.3v220c8.8 3.9 15 12.7 15 22.9 0 13.8-11.2 25-25 25-10.3 0-19.1-6.2-22.9-15h-171.3v528.8h128.2c3.9-8.8 12.7-15 22.9-15 13.8 0 25 11.2 25 25s-11.2 25-25 25c-10.3 0-19.1-6.2-22.9-15h-148.2V537.7H2227c2.5-5.8 7.1-10.4 12.9-12.9V190h-184.2v179.3c8.8 3.9 15 12.7 15 22.9 0 13.8-11.2 25-25 25s-25-11.2-25-25c0-10.3 6.2-19.1 15-22.9V170h204.2V-.4h-310.6v1500zM2871.6 1740.2h269.7v-20h-249.7v-220.6h-20zM3387.6 1669.7h269.7v-20h-249.7v-150.1h-20zM3387.6-48.8h20V-.4h-20zM2871.6-60.3h20V-.4h-20zM2239.9-48.8h20V-.4h-20zM2239.9 1678.9h269.7v-20h-249.7v-159.3h-20z"/></g></svg>