<svg id="Layer_1" xmlns="http://www.w3.org/2000/svg" viewBox="0 270 612 612"><g fill="#EDF0F2"><path d="M376.8 372L355 282.6c-1.8-7.5-8.6-12.6-16.1-12.6H273.2c-7.8 0-14.3 5.3-16.1 12.6L235.2 372h141.6zM212 381.8l-78.7-47.7c-6.5-4.1-15.1-3.1-20.4 2.4l-23.3 23.1-23.1 23.3c-5.5 5.5-6.5 13.9-2.4 20.4l47.7 78.7L212 381.8zM102 505.2L12.6 527C5.1 528.9 0 535.6 0 543.2v65.6c0 7.8 5.3 14.3 12.6 16.1l89.4 21.8V505.2zM111.8 670l-47.7 78.7c-4.1 6.5-3.1 15.1 2.4 20.4l23.3 23.3 23.3 23.3c5.5 5.5 13.9 6.5 20.4 2.4l78.7-47.7L111.8 670zM235.2 780l21.8 89.4c1.8 7.5 8.6 12.6 16.1 12.6H338.8c7.8 0 14.3-5.3 16.1-12.6l21.8-89.4H235.2zM400 770.2l78.7 47.7c6.5 4.1 15.1 3.1 20.4-2.4l23.3-23.3 23.3-23.3c5.5-5.5 6.5-13.9 2.4-20.4l-47.7-78.7L400 770.2zM510 646.8l89.4-21.8c7.5-1.8 12.6-8.6 12.6-16.1V543.2c0-7.8-5.3-14.3-12.6-16.1L510 505.2v141.6zM500.2 482l47.7-78.7c4.1-6.5 3.1-15.1-2.4-20.4l-23.3-23.3-23.2-23.3c-5.5-5.5-13.9-6.5-20.4-2.4l-78.7 47.7L500.2 482z"/><path d="M530.6 576c0 124-100.6 224.6-224.6 224.6S81.4 700 81.4 576 182 351.4 306 351.4 530.6 452 530.6 576zM306 448.5c-70.4 0-127.5 57.1-127.5 127.5S235.6 703.5 306 703.5 433.5 646.4 433.5 576 376.4 448.5 306 448.5z"/></g></svg>