<svg id="Layer_1" xmlns="http://www.w3.org/2000/svg" viewBox="0 0 80 80"><g fill="#23313F"><path d="M49.3 13.3L46.4 1.6C46.2.6 45.3 0 44.3 0h-8.6c-1 0-1.9.7-2.1 1.6l-2.9 11.7h18.6zM27.7 14.6L17.4 8.4c-.8-.5-2-.4-2.7.3l-3 3-3 3c-.7.7-.8 1.8-.3 2.7l6.2 10.3 13.1-13.1zM13.3 30.7L1.6 33.6c-1 .2-1.6 1.1-1.6 2.1v8.6c0 1 .7 1.9 1.6 2.1l11.7 2.8V30.7zM14.6 52.3L8.4 62.6c-.5.8-.4 2 .3 2.7l3 3 3 3c.7.7 1.8.8 2.7.3l10.3-6.2-13.1-13.1zM30.7 66.7l2.8 11.7c.2 1 1.1 1.6 2.1 1.6h8.7c1 0 1.9-.7 2.1-1.6l2.8-11.7H30.7zM52.3 65.4l10.3 6.2c.8.5 2 .4 2.7-.3l3-3 3-3c.7-.7.8-1.8.3-2.7l-6.2-10.3-13.1 13.1zM66.7 49.3l11.7-2.8c1-.2 1.6-1.1 1.6-2.1v-8.7c0-1-.7-1.9-1.6-2.1l-11.7-2.9v18.6zM65.4 27.7l6.2-10.3c.5-.8.4-2-.3-2.7l-3-3-3-3c-.7-.7-1.8-.8-2.7-.3l-10.3 6.2 13.1 13.1z"/><path d="M69.4 40c0 16.2-13.2 29.4-29.4 29.4S10.6 56.2 10.6 40 23.8 10.6 40 10.6 69.4 23.8 69.4 40zM40 23.3c-9.2 0-16.7 7.5-16.7 16.7S30.8 56.7 40 56.7 56.7 49.2 56.7 40 49.2 23.3 40 23.3z"/></g></svg>