<svg id="Layer_1" xmlns="http://www.w3.org/2000/svg" viewBox="0 690 1080 1080"><g fill="#F0F3F4"><path d="M664.9 870l-38.5-157.8C623.2 699 611.2 690 598 690H482.1c-13.8 0-25.2 9.4-28.4 22.2L415.1 870h249.8zM374.1 887.3l-138.9-84.2c-11.5-7.2-26.6-5.5-36 4.2l-41.1 40.8-40.8 41.1c-9.7 9.7-11.5 24.5-4.2 36l84.2 138.9 176.8-176.8zM180 1105.1l-157.8 38.5C9 1146.9 0 1158.7 0 1172.1v115.8c0 13.8 9.4 25.2 22.2 28.4l157.8 38.5v-249.7zM197.3 1395.9l-84.2 138.9c-7.2 11.5-5.5 26.6 4.2 36l41.1 41.1 41.1 41.1c9.7 9.7 24.5 11.5 36 4.2l138.9-84.2-177.1-177.1zM415.1 1590l38.5 157.8c3.2 13.2 15.2 22.2 28.4 22.2h115.9c13.8 0 25.2-9.4 28.4-22.2l38.5-157.8H415.1zM705.9 1572.7l138.9 84.2c11.5 7.2 26.6 5.5 36-4.2l41.1-41.1 41.1-41.1c9.7-9.7 11.5-24.5 4.2-36L883 1395.6l-177.1 177.1zM900 1354.9l157.8-38.5c13.2-3.2 22.2-15.2 22.2-28.4v-115.9c0-13.8-9.4-25.2-22.2-28.4L900 1105.1v249.8zM882.7 1064.1l84.2-138.9c7.2-11.5 5.5-26.6-4.2-36l-41.1-41.1-41-41.1c-9.7-9.7-24.5-11.5-36-4.2L705.7 887l177 177.1z"/><path d="M936.4 1230c0 218.8-177.5 396.4-396.4 396.4S143.6 1448.8 143.6 1230 321.2 833.6 540 833.6s396.4 177.6 396.4 396.4zM540 1005c-124.2 0-225 100.8-225 225s100.8 225 225 225 225-100.8 225-225-100.8-225-225-225z"/></g></svg>