<svg id="Layer_1" xmlns="http://www.w3.org/2000/svg" viewBox="0 0 462.7 416.5"><g fill="#FFF"><path d="M151.6 169.9l-21.1-38.2c-1.8-3.2-5.5-4.7-8.9-3.8l-15.1 4.1-15 4.1c-3.6 1-5.9 4.2-5.8 7.8l1 43.6 64.9-17.6zM77.3 194.8l-41.9-12.1c-3.5-1.1-7.3.5-9 3.6l-7.8 13.5-7.7 13.5c-1.8 3.2-1.3 7.2 1.4 9.6L43.9 253l33.4-58.2zM42.3 264.9L4 285.9c-3.2 1.8-4.7 5.5-3.8 9l4.1 15 4.1 15c1 3.6 4.2 5.9 7.8 5.8l43.6-1.1-17.5-64.7zM67.2 339.1L55.1 381c-1.1 3.5.5 7.3 3.6 9l13.6 7.8 13.6 7.8c3.2 1.8 7.2 1.3 9.6-1.4l30.1-31.6-58.4-33.5zM137.3 374.2l21.1 38.2c1.8 3.2 5.5 4.7 8.9 3.8l15.1-4.1 15-4.1c3.6-1 5.9-4.2 5.8-7.8l-1.1-43.6-64.8 17.6zM211.5 349.3l41.9 12.1c3.5 1.1 7.3-.5 9-3.6l7.8-13.6 7.8-13.6c1.8-3.2 1.3-7.2-1.4-9.6L245 290.9l-33.5 58.4zM246.6 279.2l38.2-21.1c3.2-1.8 4.7-5.5 3.8-8.9l-4.1-15.1-4.1-15c-1-3.6-4.2-5.9-7.8-5.8l-43.6 1 17.6 64.9zM221.7 204.9l12.1-41.9c1.1-3.5-.5-7.3-3.6-9l-13.6-7.8-13.5-7.8c-3.2-1.8-7.2-1.3-9.6 1.4l-30.1 31.6 58.3 33.5z"/><path d="M247.2 244.2c15.4 56.8-18.2 115.3-75 130.6-56.8 15.4-115.3-18.2-130.6-75s18.2-115.3 75-130.6 115.3 18.2 130.6 75zm-120.5-37.8c-36.2 9.8-57.6 47.1-47.8 83.3 9.8 36.2 47.1 57.6 83.3 47.8s57.6-47.1 47.8-83.3-47.1-57.6-83.3-47.8z"/><g><path d="M428.8 94.3l23.3-29.1c2-2.4 2-5.9.1-8.3l-8.1-10.6-8.1-10.5c-1.9-2.5-5.2-3.3-8.1-2l-34.1 15.1 35 45.4zM407.9 168.8l36.9 5.6c3.1.5 6.1-1.2 7.3-4.1l5.1-12.3 5-12.3c1.2-2.9.3-6.2-2.3-8l-30.1-22-21.9 53.1zM333 187.9l13.6 34.7c1.1 2.9 4.1 4.7 7.2 4.2l13.2-1.7 13.2-1.8c3.1-.4 5.5-2.9 5.8-6l4-37.1-57 7.7zM279 132.6l-23.3 29.1c-2 2.4-2 5.9-.1 8.3l8.1 10.6 8.2 10.5c1.9 2.5 5.2 3.3 8.1 2l34.1-15.1-35.1-45.4zM299.9 58.2L263 52.6c-3.1-.5-6.1 1.2-7.3 4.1L250.6 69l-5 12.3c-1.2 2.9-.3 6.2 2.3 8l30.1 22 21.9-53.1zM374.8 39L361.2 4.3c-1.1-2.9-4.1-4.7-7.2-4.2l-13.2 1.7-13.2 1.8c-3.1.4-5.5 2.9-5.8 6l-4 37.1 57-7.7z"/><path d="M418.3 162.7c-27.2 35.5-78 42.3-113.6 15.2s-42.3-78-15.2-113.6 78-42.3 113.6-15.2 42.4 78 15.2 113.6zm-36.5-85.8c-20.2-15.4-49.1-11.6-64.5 8.6-15.4 20.2-11.6 49.1 8.6 64.5s49.1 11.6 64.5-8.6 11.6-49.1-8.6-64.5z"/></g></g></svg>