<svg xmlns="http://www.w3.org/2000/svg" viewBox="14.1 82.9 1471.6 325.5"><path fill="#FFF" d="M1483.9 321L750 406.9 16 321l52.4-209.6c3.8-15 19.2-27 34.6-27h1293.8c15.4 0 30.8 12 34.5 27l52.6 209.6zM750.5 188.6c12.6 0 22.9-10.3 22.9-22.9 0-12.6-10.3-22.9-22.9-22.9-12.6 0-22.9 10.3-22.9 22.9s10.3 22.9 22.9 22.9z"/><path fill="none" stroke="#E0E7EC" stroke-width="3" stroke-miterlimit="10" d="M1483.9 321L750 406.9 16 321l52.4-209.6c3.8-15 19.2-27 34.6-27h1293.8c15.4 0 30.8 12 34.5 27l52.6 209.6zM750.5 188.6c12.6 0 22.9-10.3 22.9-22.9 0-12.6-10.3-22.9-22.9-22.9-12.6 0-22.9 10.3-22.9 22.9s10.3 22.9 22.9 22.9z"/></svg>