<svg xmlns="http://www.w3.org/2000/svg" viewBox="1607.8 51.5 437.5 492.2"><path fill="#FFF" d="M1608.4 543V52.3l218.1 14 218-14V543z"/><path fill="#E1E8ED" d="M2043.9 53v489.4h-434.8V53l217.2 14h.2l217.4-14m1.3-1.5l-218.7 14.1-218.7-14.1v492.1h437.5l-.1-492.1z"/><g><path fill="#FFF" d="M1608.4 543v-20.1c0-11.1 9-20.1 20.1-20.1h396c11.1 0 20.1 9 20.1 20.1V543h-436.2z"/><path fill="#E1E8ED" d="M2024.5 503.5c10.8 0 19.4 8.8 19.4 19.4v19.4H1609.1v-19.4c0-10.8 8.8-19.4 19.4-19.4h396m0-1.2h-396c-11.4 0-20.7 9.3-20.7 20.7v20.7h437.5V523c-.1-11.5-9.4-20.7-20.8-20.7z"/></g></svg>