<svg xmlns="http://www.w3.org/2000/svg" viewBox="0 0 338.5 146.2"><path fill="#FFF" d="M249.2 142.8V3.3h79.3c4.7 0 8.5 3.8 8.5 8.5v102.5c0 15.7-12.8 28.5-28.5 28.5h-59.3z"/><path fill="#F7F7F7" d="M308.5 144.3h-88.1v-37.7h118.1v7.7c0 16.6-13.4 30-30 30z"/><path fill="#E1E8ED" d="M328.5 4.8c3.9 0 7 3.1 7 7v102.5c0 14.9-12.1 27-27 27h-57.8V4.8h77.8m0-3h-80.8v142.5h60.8c16.6 0 30-13.4 30-30V11.8c0-5.5-4.4-10-10-10z"/><linearGradient id="a" gradientUnits="userSpaceOnUse" x1="132.142" y1="2.454" x2="132.142" y2="144.972"><stop offset="0" stop-color="#1e3b57"/><stop offset="1" stop-color="#182e4a"/></linearGradient><path fill="url(#a)" d="M11.1 144.2c-5 0-9.1-3.6-9.1-8V10c0-4.4 4.1-8 9.1-8h248.1c1.7 0 3 1.3 3 3v136.2c0 1.7-1.3 3-3 3H11.1z"/><path fill="#132533" d="M259.3 4c.6 0 1 .4 1 1v136.2c0 .6-.4 1-1 1H11.1c-3.9 0-7.1-2.7-7.1-6V10c0-3.3 3.2-6 7.1-6h248.2m0-4H11.1C5 0 0 4.5 0 10v126.2c0 5.5 5 10 11.1 10h248.1c2.8 0 5-2.2 5-5V5c.1-2.8-2.2-5-4.9-5z"/></svg>