<svg xmlns="http://www.w3.org/2000/svg" viewBox="526.5 331 749.3 749.1"><g fill="#273644"><path d="M919.8 440.7l-54.7-99.1c-4.7-8.3-14.3-12.2-23.1-9.9l-39.2 10.7-38.9 10.6c-9.4 2.6-15.3 10.9-15 20.2l2.6 113.1 168.3-45.6zM727.1 505.2l-108.7-31.4c-9.1-2.9-18.9 1.3-23.3 9.4l-20.2 35-19.9 35c-4.7 8.3-3.4 18.7 3.6 24.9l81.9 78.1 86.6-151zM636.3 687L537 741.4c-8.3 4.7-12.2 14.3-9.9 23.3l10.7 38.9 10.7 38.9c2.6 9.4 10.9 15.3 20.2 15.1l113.1-2.9L636.3 687zM700.9 879.4l-31.4 108.7c-2.9 9.1 1.3 18.9 9.4 23.3l35.3 20.2 35.3 20.2c8.3 4.7 18.7 3.4 24.9-3.6l78.1-81.9-151.6-86.9zM882.7 970.5l54.7 99.1c4.7 8.3 14.3 12.2 23.1 9.9l39.2-10.7 38.9-10.7c9.4-2.6 15.3-10.9 15.1-20.2l-2.9-113.1-168.1 45.7zM1075.1 905.9l108.7 31.4c9.1 2.9 18.9-1.3 23.3-9.4l20.2-35.3 20.2-35.3c4.7-8.3 3.4-18.7-3.6-24.9l-81.9-78.1-86.9 151.6zM1166.2 724.1l99.1-54.7c8.3-4.7 12.2-14.3 9.9-23.1l-10.7-39.2-10.7-38.9c-2.6-9.4-10.9-15.3-20.2-15.1l-113.1 2.6 45.7 168.4zM1101.6 531.4l31.4-108.7c2.9-9.1-1.3-18.9-9.4-23.3l-35.3-20.2-35-20.2c-8.3-4.7-18.7-3.4-24.9 3.6l-78 82 151.2 86.8z"/><path d="M1167.8 633.4c40 147.3-47.2 299-194.5 338.7-147.3 40-299-47.2-338.7-194.5-39.7-147.3 47.2-299 194.5-338.7s299 47.1 338.7 194.5zm-312.6-98.1c-93.9 25.4-149.3 122.2-123.9 216s122.1 149.3 216 123.9 149.3-122.1 123.9-216-122.1-149.3-216-123.9z"/></g></svg>