<?xml version="1.0" encoding="utf-8"?>
<!-- Generator: Adobe Illustrator 18.1.1, SVG Export Plug-In . SVG Version: 6.00 Build 0)  -->
<svg version="1.1" id="Layer_1" xmlns="http://www.w3.org/2000/svg" xmlns:xlink="http://www.w3.org/1999/xlink" x="0px" y="0px"
	 viewBox="0 180 612 612" enable-background="new 0 180 612 612" xml:space="preserve">
<g>
	<path fill="#E8EAEB" d="M376.8,282L355,192.6c-1.8-7.5-8.6-12.6-16.1-12.6H306h-32.8c-7.8,0-14.3,5.3-16.1,12.6L235.2,282H376.8z"
		/>
	<path fill="#E8EAEB" d="M212,291.8l-78.7-47.7c-6.5-4.1-15.1-3.1-20.4,2.4l-23.3,23.1l-23.1,23.3c-5.5,5.5-6.5,13.9-2.4,20.4
		l47.7,78.7L212,291.8z"/>
	<path fill="#E8EAEB" d="M102,415.2L12.6,437C5.1,438.9,0,445.6,0,453.2V486v32.8c0,7.8,5.3,14.3,12.6,16.1l89.4,21.8V415.2z"/>
	<path fill="#E8EAEB" d="M111.8,580l-47.7,78.7c-4.1,6.5-3.1,15.1,2.4,20.4l23.3,23.3l23.3,23.3c5.5,5.5,13.9,6.5,20.4,2.4
		l78.7-47.7L111.8,580z"/>
	<path fill="#E8EAEB" d="M235.2,690l21.8,89.4c1.8,7.5,8.6,12.6,16.1,12.6H306h32.8c7.8,0,14.3-5.3,16.1-12.6l21.8-89.4H235.2
		L235.2,690z"/>
	<path fill="#E8EAEB" d="M400,680.2l78.7,47.7c6.5,4.1,15.1,3.1,20.4-2.4l23.3-23.3l23.3-23.3c5.5-5.5,6.5-13.9,2.4-20.4l-47.7-78.7
		L400,680.2z"/>
	<path fill="#E8EAEB" d="M510,556.8l89.4-21.8c7.5-1.8,12.6-8.6,12.6-16.1V486v-32.8c0-7.8-5.3-14.3-12.6-16.1L510,415.2V556.8z"/>
	<path fill="#E8EAEB" d="M500.2,392l47.7-78.7c4.1-6.5,3.1-15.1-2.4-20.4l-23.3-23.3L499,246.3c-5.5-5.5-13.9-6.5-20.4-2.4
		l-78.7,47.7L500.2,392z"/>
	<path fill="#E8EAEB" d="M530.6,486c0,124-100.6,224.6-224.6,224.6S81.4,610,81.4,486S182,261.4,306,261.4S530.6,362,530.6,486z
		 M306,358.5c-70.4,0-127.5,57.1-127.5,127.5S235.6,613.5,306,613.5S433.5,556.4,433.5,486S376.4,358.5,306,358.5z"/>
</g>
</svg>
