<svg xmlns="http://www.w3.org/2000/svg" viewBox="360 331 749.2 748.9"><g fill="#FFF"><path d="M753.2 440.6l-54.7-99.1c-4.7-8.3-14.3-12.2-23.1-9.9l-39.2 10.6-38.9 10.6c-9.3 2.6-15.3 10.9-15 20.2l2.6 113.1 168.3-45.5zM560.5 505.1l-108.6-31.4c-9.1-2.9-18.9 1.3-23.3 9.3l-20.2 35-20 35c-4.7 8.3-3.4 18.7 3.6 24.9l81.9 78.1 86.6-150.9zM469.8 686.9l-99.3 54.5c-8.3 4.7-12.2 14.3-9.9 23.3l10.6 38.9 10.6 38.9c2.6 9.3 10.9 15.3 20.2 15l113.1-2.9-45.3-167.7zM534.4 879.3L503 987.9c-2.9 9.1 1.3 18.9 9.3 23.3l35.3 20.2 35.3 20.2c8.3 4.7 18.7 3.4 24.9-3.6l78.1-81.9-151.5-86.8zM716.1 970.3l54.7 99.1c4.7 8.3 14.3 12.2 23.1 9.9l39.2-10.6L872 1058c9.3-2.6 15.3-10.9 15-20.2l-2.9-113.1-168 45.6zM908.5 905.7l108.6 31.4c9.1 2.9 18.9-1.3 23.3-9.3l20.2-35.3 20.2-35.3c4.7-8.3 3.4-18.7-3.6-24.9l-81.9-78.1-86.8 151.5zM999.5 724l99.1-54.7c8.3-4.7 12.2-14.3 9.9-23.1l-10.6-39.2-10.6-38.9c-2.6-9.3-10.9-15.3-20.2-15L954 555.7 999.5 724zM935 531.3l31.4-108.6c2.9-9.1-1.3-18.9-9.3-23.3l-35.3-20.2-35-20.2c-8.3-4.7-18.7-3.4-24.9 3.6l-78.1 81.9L935 531.3z"/><path d="M1001.1 633.2c39.9 147.3-47.2 299-194.5 338.7-147.3 39.9-299-47.2-338.7-194.5s47.2-299 194.5-338.7 299 47.2 338.7 194.5zm-312.5-98c-93.9 25.4-149.4 122.1-123.9 216 25.4 93.9 122.1 149.4 216 123.9s149.4-122.1 123.9-216-122.1-149.3-216-123.9z"/></g></svg>