<svg xmlns="http://www.w3.org/2000/svg" viewBox="1162.2 0.1 564.5 588.3"><g fill="#273644"><path d="M1638.7 244.6l60.4-75.5c5.2-6.2 5.2-15.3.3-21.5l-21-27.5-21-27.2c-4.9-6.5-13.5-8.6-21-5.2l-88.4 39.2 90.7 117.7zM1584.5 437.8l95.7 14.5c8.1 1.3 15.8-3.1 18.9-10.7l13.2-31.9 13-31.9c3.1-7.5.8-16.1-6-20.7l-78.1-57-56.7 137.7zM1390.3 487.3l35.3 90c2.9 7.5 10.7 12.2 18.7 10.9l34.2-4.4 34.2-4.7c8.1-1 14.3-7.5 15-15.6l10.4-96.2-147.8 20zM1250.2 343.9l-60.4 75.5c-5.2 6.2-5.2 15.3-.3 21.5l21 27.5 21.2 27.2c4.9 6.5 13.5 8.6 21 5.2l88.4-39.2-90.9-117.7zM1304.4 151l-95.7-14.5c-8.1-1.3-15.8 3.1-18.9 10.7l-13.2 31.9-13 31.9c-3.1 7.5-.8 16.1 6 20.7l78.1 57 56.7-137.7zM1498.6 101.2l-35.3-90c-2.9-7.5-10.7-12.2-18.7-10.9l-34.2 4.4-34.2 4.7c-8.1 1-14.3 7.5-15.1 15.6l-10.4 96.2 147.9-20z"/><path d="M1611.5 422c-70.6 92.1-202.3 109.7-294.6 39.4s-109.7-202.3-39.4-294.6 202.3-109.7 294.6-39.4S1682 329.6 1611.5 422zm-94.7-222.5c-52.4-40-127.3-30.1-167.3 22.3s-30.1 127.3 22.3 167.3 127.3 30.1 167.3-22.3 30.1-127.4-22.3-167.3z"/></g></svg>