<?xml version="1.0" encoding="utf-8"?>
<!-- Generator: Adobe Illustrator 18.0.0, SVG Export Plug-In . SVG Version: 6.00 Build 0)  -->
<!DOCTYPE svg PUBLIC "-//W3C//DTD SVG 1.1//EN" "http://www.w3.org/Graphics/SVG/1.1/DTD/svg11.dtd">
<svg version="1.1" id="Layer_1" xmlns="http://www.w3.org/2000/svg" xmlns:xlink="http://www.w3.org/1999/xlink" x="0px" y="0px"
	 viewBox="0 0 300 300" enable-background="new 0 0 300 300" xml:space="preserve">
<g>
	<path fill="#1B2126" d="M184.7,50L174,6.2c-0.9-3.7-4.2-6.2-7.9-6.2H150h-16.1c-3.8,0-7,2.6-7.9,6.2L115.3,50H184.7z"/>
	<path fill="#1B2126" d="M103.9,54.8L65.3,31.4c-3.2-2-7.4-1.5-10,1.2L43.9,43.9L32.6,55.3c-2.7,2.7-3.2,6.8-1.2,10l23.4,38.6
		L103.9,54.8z"/>
	<path fill="#1B2126" d="M50,115.3L6.2,126c-3.7,0.9-6.2,4.2-6.2,7.9V150v16.1c0,3.8,2.6,7,6.2,7.9L50,184.7V115.3z"/>
	<path fill="#1B2126" d="M54.8,196.1l-23.4,38.6c-2,3.2-1.5,7.4,1.2,10L44,256.1l11.4,11.4c2.7,2.7,6.8,3.2,10,1.2l38.6-23.4
		L54.8,196.1z"/>
	<path fill="#1B2126" d="M115.3,250l10.7,43.8c0.9,3.7,4.2,6.2,7.9,6.2H150h16.1c3.8,0,7-2.6,7.9-6.2l10.7-43.8L115.3,250L115.3,250
		z"/>
	<path fill="#1B2126" d="M196.1,245.2l38.6,23.4c3.2,2,7.4,1.5,10-1.2l11.4-11.4l11.4-11.4c2.7-2.7,3.2-6.8,1.2-10L245.3,196
		L196.1,245.2z"/>
	<path fill="#1B2126" d="M250,184.7l43.8-10.7c3.7-0.9,6.2-4.2,6.2-7.9V150v-16.1c0-3.8-2.6-7-6.2-7.9L250,115.3V184.7z"/>
	<path fill="#1B2126" d="M245.2,103.9l23.4-38.6c2-3.2,1.5-7.4-1.2-10L256,43.9l-11.4-11.4c-2.7-2.7-6.8-3.2-10-1.2L196,54.7
		L245.2,103.9z"/>
	<path fill="#1B2126" d="M260.1,150c0,60.8-49.3,110.1-110.1,110.1S39.9,210.8,39.9,150S89.2,39.9,150,39.9S260.1,89.2,260.1,150z
		 M150,87.5c-34.5,0-62.5,28-62.5,62.5s28,62.5,62.5,62.5s62.5-28,62.5-62.5S184.5,87.5,150,87.5z"/>
</g>
</svg>
