<?xml version="1.0" encoding="utf-8"?>
<!-- Generator: Adobe Illustrator 18.1.1, SVG Export Plug-In . SVG Version: 6.00 Build 0)  -->
<svg version="1.1" id="Layer_1" xmlns="http://www.w3.org/2000/svg" xmlns:xlink="http://www.w3.org/1999/xlink" x="0px" y="0px"
	 viewBox="0 90 612 612" enable-background="new 0 90 612 612" xml:space="preserve">
<g>
	<path fill="#1C252B" d="M376.8,192L355,102.6c-1.8-7.5-8.6-12.6-16.1-12.6H306h-32.8c-7.8,0-14.3,5.3-16.1,12.6L235.2,192H376.8z"
		/>
	<path fill="#1C252B" d="M212,201.8l-78.7-47.7c-6.5-4.1-15.1-3.1-20.4,2.4l-23.3,23.1l-23.1,23.3c-5.5,5.5-6.5,13.9-2.4,20.4
		l47.7,78.7L212,201.8z"/>
	<path fill="#1C252B" d="M102,325.2L12.6,347C5.1,348.9,0,355.6,0,363.2V396v32.8c0,7.8,5.3,14.3,12.6,16.1l89.4,21.8V325.2z"/>
	<path fill="#1C252B" d="M111.8,490l-47.7,78.7c-4.1,6.5-3.1,15.1,2.4,20.4l23.3,23.3l23.3,23.3c5.5,5.5,13.9,6.5,20.4,2.4
		l78.7-47.7L111.8,490z"/>
	<path fill="#1C252B" d="M235.2,600l21.8,89.4c1.8,7.5,8.6,12.6,16.1,12.6H306h32.8c7.8,0,14.3-5.3,16.1-12.6l21.8-89.4L235.2,600
		L235.2,600z"/>
	<path fill="#1C252B" d="M400,590.2l78.7,47.7c6.5,4.1,15.1,3.1,20.4-2.4l23.3-23.3l23.3-23.3c5.5-5.5,6.5-13.9,2.4-20.4l-47.7-78.7
		L400,590.2z"/>
	<path fill="#1C252B" d="M510,466.8l89.4-21.8c7.5-1.8,12.6-8.6,12.6-16.1V396v-32.8c0-7.8-5.3-14.3-12.6-16.1L510,325.2V466.8z"/>
	<path fill="#1C252B" d="M500.2,302l47.7-78.7c4.1-6.5,3.1-15.1-2.4-20.4l-23.3-23.3L499,156.3c-5.5-5.5-13.9-6.5-20.4-2.4
		l-78.7,47.7L500.2,302z"/>
	<path fill="#1C252B" d="M530.6,396c0,124-100.6,224.6-224.6,224.6S81.4,520,81.4,396S182,171.4,306,171.4S530.6,272,530.6,396z
		 M306,268.5c-70.4,0-127.5,57.1-127.5,127.5S235.6,523.5,306,523.5S433.5,466.4,433.5,396S376.4,268.5,306,268.5z"/>
</g>
</svg>
