<svg xmlns="http://www.w3.org/2000/svg" viewBox="0 0 326.7 77.3"><path fill="#79878C" d="M32.2 76.3C13.5 76.3 1 63.4 1 44.2 1 24.6 13.3 12 32.2 12c3.5 0 207.9-.1 207.9-.1 16.1 0 26.5 10.3 26.5 26.3 0 24.5-20.3 26.4-26.5 26.4H87.4v-1.8-4.5h152.8c17.9 0 20.5-12.7 20.5-20.2 0-6.3-2-11.5-5.9-14.9-3.6-3.1-8.6-4.8-14.6-4.8H32.3c-15.2 0-25 10.2-25 26.1 0 12.4 6.6 25.6 25 25.6h253.6c21.2 0 33.3-11.4 33.3-31.2 0-20.2-11.8-31.3-33.3-31.3h-201V2.1v-.9s195.9-.1 201-.1c24.3 0 40 14.8 40 37.7 0 23.5-14.9 37.6-40 37.6H32.2z"/><path fill="#5C696D" d="M285.7 2.1c11.3 0 21 3.3 27.9 9.5 7.2 6.5 11.1 15.9 11.1 27.2 0 11.6-3.8 21.1-11.1 27.5-6.8 6-16.5 9.1-27.9 9.1H32.2c-9.2 0-16.9-3.1-22.2-8.8-5.3-5.7-8-13.4-8-22.4C2 35.4 4.7 27.5 9.6 22c5.4-5.9 13.2-9 22.6-9 3.5 0 75.6 0 134.4-.1h73.5c7.3 0 13.5 2.2 18.1 6.3 4.8 4.4 7.4 11 7.4 18.9 0 8.7-2.7 15.4-7.9 19.8-4.4 3.6-10.6 5.6-17.5 5.6H88.5v-.1-.7-3.5h151.7c13.7 0 21.5-7.7 21.5-21.2 0-6.6-2.2-12-6.2-15.6-3.7-3.3-9-5.1-15.3-5.1H32.3c-15.8 0-26 10.6-26 27.1C6.2 57.3 13 71 32.2 71h253.6c21.8 0 34.3-11.7 34.3-32.2 0-10.7-3.2-18.9-9.6-24.5-5.9-5.2-14.2-7.8-24.7-7.8h-200v-.1-1.2-1.9-1.2h1.5c14.9 0 59.3 0 102.4-.1 46.3.1 91.1.1 96 .1m0-2c-9.6 0-167.6.1-198.4.1h-3.5v8.4h201.9C305 8.6 318 18 318 38.9c0 20-12.2 30.2-32.3 30.2H32.1c-11.9 0-24-6.4-24-24.6 0-14.4 8.3-25.1 24-25.1H240c11.2 0 19.6 5.9 19.6 18.7 0 14.9-9.7 19.2-19.5 19.2H86.4v8.4h153.8c13.6 0 27.5-7.1 27.5-27.4 0-18-12.3-27.3-27.5-27.3-23.8-.1-202.3 0-208 0C11 11 0 25.9 0 44.2c0 18.9 11.9 33.1 32.2 33.1h253.6c23.3 0 41-12.7 41-38.6C326.7 13.8 309 .1 285.7.1z"/></svg>