<?xml version="1.0" standalone="no"?>
<!DOCTYPE svg PUBLIC "-//W3C//DTD SVG 20010904//EN"
 "http://www.w3.org/TR/2001/REC-SVG-20010904/DTD/svg10.dtd">
<svg version="1.0" xmlns="http://www.w3.org/2000/svg"
 width="700.000000pt" height="700.000000pt" viewBox="0 0 700.000000 700.000000"
 preserveAspectRatio="xMidYMid meet">
<metadata>
Created by potrace 1.11, written by Peter Selinger 2001-2013
</metadata>
<g transform="translate(0.000000,700.000000) scale(0.100000,-0.100000)"
fill="#000000" stroke="none">
<path d="M3045 6981 c-49 -22 -91 -69 -104 -117 -5 -20 -58 -233 -118 -474
l-107 -439 -76 -27 c-41 -14 -129 -50 -195 -80 -65 -30 -123 -54 -127 -54 -4
0 -183 106 -398 236 -215 129 -407 242 -425 250 -48 20 -112 17 -159 -6 -57
-27 -590 -562 -611 -612 -19 -47 -19 -108 -1 -153 8 -18 121 -210 250 -425
130 -215 236 -394 236 -398 0 -4 -24 -62 -54 -127 -30 -66 -66 -154 -80 -195
l-27 -76 -462 -113 c-254 -62 -474 -119 -488 -127 -38 -19 -76 -68 -89 -112
-6 -23 -10 -194 -10 -440 0 -341 2 -408 15 -440 17 -40 49 -78 80 -95 11 -6
229 -61 485 -122 l464 -111 42 -109 c23 -61 60 -150 83 -199 22 -49 41 -93 41
-97 0 -5 -106 -184 -236 -399 -129 -215 -242 -407 -250 -425 -20 -48 -17 -112
6 -159 27 -57 562 -590 612 -611 47 -19 108 -19 153 -1 18 8 210 121 425 250
215 130 394 236 399 236 4 0 48 -19 97 -41 49 -23 134 -59 189 -80 55 -21 103
-44 108 -51 4 -7 52 -202 107 -433 55 -231 107 -443 115 -471 17 -60 64 -107
122 -123 24 -7 192 -11 446 -11 345 0 413 2 445 15 40 17 78 49 95 80 6 11 61
229 122 485 l111 464 109 42 c61 23 150 60 199 83 49 22 93 41 97 41 5 0 184
-106 399 -236 215 -129 407 -242 425 -250 45 -18 106 -18 153 1 50 21 585 554
612 611 23 47 26 111 6 159 -8 18 -121 210 -250 425 -130 215 -236 394 -236
399 0 4 19 48 41 97 23 49 59 134 80 189 21 55 44 103 51 108 7 4 202 52 433
107 231 55 443 107 471 115 60 17 107 64 123 122 7 24 11 192 11 448 0 456 -1
460 -69 518 -38 31 1 20 -541 154 l-439 107 -27 76 c-14 41 -50 129 -80 195
-30 65 -54 123 -54 127 0 4 106 183 236 398 129 215 242 407 250 425 20 48 17
112 -6 159 -27 57 -562 590 -612 611 -47 19 -108 19 -153 1 -18 -8 -210 -121
-425 -250 -215 -130 -394 -236 -398 -236 -4 0 -62 24 -127 54 -66 30 -154 66
-195 80 l-76 27 -113 462 c-62 254 -119 474 -127 488 -19 38 -68 76 -112 89
-23 6 -194 10 -442 10 -371 0 -408 -2 -445 -19z m747 -2050 c132 -29 253 -72
376 -136 393 -204 668 -568 764 -1008 32 -147 32 -427 0 -574 -30 -137 -73
-257 -137 -381 -204 -393 -568 -668 -1008 -764 -147 -32 -427 -32 -574 0 -137
30 -257 73 -381 137 -393 204 -668 568 -764 1008 -32 147 -32 427 0 574 63
288 198 538 403 742 225 226 496 364 818 416 122 20 375 13 503 -14z"/>
</g>
</svg>
