<?xml version="1.0" encoding="UTF-8" standalone="no"?>
<svg width="615px" height="1113px" viewBox="0 0 615 1113" version="1.1" xmlns="http://www.w3.org/2000/svg" xmlns:xlink="http://www.w3.org/1999/xlink" xmlns:sketch="http://www.bohemiancoding.com/sketch/ns">
    <!-- Generator: Sketch 3.3 (11970) - http://www.bohemiancoding.com/sketch -->
    <title>BrowserLoFi</title>
    <desc>Created with Sketch.</desc>
    <defs></defs>
    <g id="Welcome" stroke="none" stroke-width="1" fill="none" fill-rule="evenodd" sketch:type="MSPage">
        <g id="Artboard-Low-Fi" sketch:type="MSArtboardGroup">
            <rect id="Rectangle-268" fill="#FFFFFF" sketch:type="MSShapeGroup" x="125" y="58" width="490" height="483"></rect>
            <g id="Group-3" sketch:type="MSLayerGroup" stroke="#D8D8D8">
                <rect id="Rectangle-266" fill="#FFFFFF" sketch:type="MSShapeGroup" x="0" y="0" width="615" height="40"></rect>
                <circle id="Oval-53" sketch:type="MSShapeGroup" cx="17" cy="15" r="5"></circle>
                <circle id="Oval-54" sketch:type="MSShapeGroup" cx="54" cy="15" r="5"></circle>
                <circle id="Oval-55" sketch:type="MSShapeGroup" cx="35" cy="15" r="5"></circle>
            </g>
            <rect id="Rectangle-264" fill="#DBDBDB" sketch:type="MSShapeGroup" x="140" y="150" width="475" height="239"></rect>
            <rect id="Rectangle-198" fill="#F3F3F3" sketch:type="MSShapeGroup" x="140" y="428" width="475" height="20"></rect>
            <rect id="Rectangle-187" fill="#FFFFFF" sketch:type="MSShapeGroup" x="140" y="448" width="475" height="35"></rect>
            <rect id="Rectangle-188" fill="#F3F3F3" sketch:type="MSShapeGroup" x="140" y="483" width="475" height="35"></rect>
            <rect id="Rectangle-189" fill="#FFFFFF" sketch:type="MSShapeGroup" x="140" y="518" width="475" height="35"></rect>
            <rect id="Rectangle-190" fill="#F3F3F3" sketch:type="MSShapeGroup" x="140" y="553" width="475" height="35"></rect>
            <rect id="Rectangle-191" fill="#FFFFFF" sketch:type="MSShapeGroup" x="140" y="588" width="475" height="35"></rect>
            <rect id="Rectangle-193" fill="#FFFFFF" sketch:type="MSShapeGroup" x="140" y="658" width="475" height="35"></rect>
            <rect id="Rectangle-192" fill="#F3F3F3" sketch:type="MSShapeGroup" x="140" y="623" width="475" height="35"></rect>
            <rect id="Rectangle-188-Copy" fill="#F3F3F3" sketch:type="MSShapeGroup" x="140" y="693" width="475" height="35"></rect>
            <rect id="Rectangle-189-Copy" fill="#FFFFFF" sketch:type="MSShapeGroup" x="140" y="728" width="475" height="35"></rect>
            <rect id="Rectangle-190-Copy" fill="#F3F3F3" sketch:type="MSShapeGroup" x="140" y="763" width="475" height="35"></rect>
            <rect id="Rectangle-191-Copy" fill="#FFFFFF" sketch:type="MSShapeGroup" x="140" y="798" width="475" height="35"></rect>
            <rect id="Rectangle-193-Copy" fill="#FFFFFF" sketch:type="MSShapeGroup" x="140" y="868" width="475" height="35"></rect>
            <rect id="Rectangle-192-Copy" fill="#F3F3F3" sketch:type="MSShapeGroup" x="140" y="833" width="475" height="35"></rect>
            <rect id="Rectangle-193-Copy-3" fill="#FFFFFF" sketch:type="MSShapeGroup" x="140" y="938" width="475" height="35"></rect>
            <rect id="Rectangle-192-Copy-2" fill="#F3F3F3" sketch:type="MSShapeGroup" x="140" y="903" width="475" height="35"></rect>
            <rect id="Rectangle-188-Copy-2" fill="#F3F3F3" sketch:type="MSShapeGroup" x="140" y="973" width="475" height="35"></rect>
            <rect id="Rectangle-189-Copy-2" fill="#FFFFFF" sketch:type="MSShapeGroup" x="140" y="1008" width="475" height="35"></rect>
            <rect id="Rectangle-190-Copy-2" fill="#F3F3F3" sketch:type="MSShapeGroup" x="140" y="1043" width="475" height="35"></rect>
            <rect id="Rectangle-191-Copy-2" fill="#FFFFFF" sketch:type="MSShapeGroup" x="140" y="1078" width="475" height="35"></rect>
            <path d="M205.086461,230.978984 C205.086461,230.978984 200.526255,311.622798 257.642235,311.622798 C314.758216,311.622797 310.083542,239.036071 350.243394,239.036056 C375.866873,239.036046 383.541912,263.225881 404.661039,263.22658 C433.993083,263.227551 434.438553,205.85063 465.198031,205.85063 C506.033685,205.85063 493.81981,292.005645 538.424705,292.005579 C581.665375,292.005516 581.665375,197.332031 581.665375,197.332031" id="Path-2456" stroke="#FFFFFF" stroke-width="1.5" sketch:type="MSShapeGroup"></path>
            <path d="M140,120 L615,120" id="Line-39" stroke="#BBBBBB" stroke-linecap="square" sketch:type="MSShapeGroup"></path>
            <path d="M140,388 L615,388" id="Line-38" stroke="#BBBBBB" stroke-linecap="square" sketch:type="MSShapeGroup"></path>
            <path d="M140,448 L615,448" id="Line-41" stroke="#BBBBBB" stroke-linecap="square" sketch:type="MSShapeGroup"></path>
            <path d="M140,428 L615,428" id="Line-40" stroke="#BBBBBB" stroke-linecap="square" sketch:type="MSShapeGroup"></path>
            <rect id="Rectangle-266" fill="#C7C7C7" sketch:type="MSShapeGroup" x="0" y="60" width="140" height="1053"></rect>
            <rect id="Rectangle-269" stroke="#FFFFFF" sketch:type="MSShapeGroup" x="52.5" y="162.5" width="80" height="22"></rect>
            <rect id="Rectangle-270" stroke="#FFFFFF" sketch:type="MSShapeGroup" x="52.5" y="101.5" width="80" height="22"></rect>
            <rect id="Rectangle-271" stroke="#FFFFFF" sketch:type="MSShapeGroup" x="52.5" y="223.5" width="80" height="22"></rect>
            <rect id="Rectangle-272" stroke="#FFFFFF" sketch:type="MSShapeGroup" x="52.5" y="285.5" width="80" height="22"></rect>
            <circle id="Oval-70" fill="#FFFFFF" sketch:type="MSShapeGroup" cx="27.5" cy="112.5" r="15"></circle>
            <circle id="Oval-71" fill="#FFFFFF" sketch:type="MSShapeGroup" cx="27.5" cy="173.5" r="15"></circle>
            <circle id="Oval-73" fill="#FFFFFF" sketch:type="MSShapeGroup" cx="27.5" cy="234.5" r="15"></circle>
            <circle id="Oval-75" fill="#FFFFFF" sketch:type="MSShapeGroup" cx="27.5" cy="296.5" r="15"></circle>
            <path d="M140,150 L615,150" id="Line" stroke="#BBBBBB" stroke-linecap="square" sketch:type="MSShapeGroup"></path>
            <rect id="Rectangle-265" fill="#DBDBDB" sketch:type="MSShapeGroup" x="0" y="30" width="615" height="45"></rect>
            <path d="M258.5,120.5 L258.5,150" id="Line" stroke="#BBBBBB" stroke-linecap="square" sketch:type="MSShapeGroup"></path>
            <path d="M377.5,120.5 L377.5,150" id="Line-36" stroke="#BBBBBB" stroke-linecap="square" sketch:type="MSShapeGroup"></path>
            <path d="M495.5,120.5 L495.5,150" id="Line-37" stroke="#BBBBBB" stroke-linecap="square" sketch:type="MSShapeGroup"></path>
            <circle id="Oval-72" fill="#D8D8D8" sketch:type="MSShapeGroup" cx="170" cy="98" r="15"></circle>
            <path id="Path-165" stroke="#979797" sketch:type="MSShapeGroup" d=""></path>
            <path id="Path-166" stroke="#979797" sketch:type="MSShapeGroup" d=""></path>
            <text id="&lt;ul-id-=-“item-list”" sketch:type="MSTextLayer" font-family="Open Sans" font-size="11" font-weight="normal" fill="#979797">
                <tspan x="149" y="469">&lt;ul id = “item-list”&gt;</tspan>
            </text>
            <text id="&lt;li-class-=-“item”&gt;" sketch:type="MSTextLayer" font-family="Open Sans" font-size="11" font-weight="normal" fill="#979797">
                <tspan x="493" y="678">&lt;li class = “item”&gt;</tspan>
            </text>
            <text id="width:-100%" sketch:type="MSTextLayer" font-family="Open Sans" font-size="11" font-weight="normal" fill="#979797">
                <tspan x="149" y="854">width: 100%</tspan>
            </text>
            <text id="background:-#273644-" sketch:type="MSTextLayer" font-family="Open Sans" font-size="11" font-weight="normal" fill="#FFFFFF">
                <tspan x="495" y="166">background: #273644 </tspan>
            </text>
            <text id="$(this).click()" sketch:type="MSTextLayer" font-family="Open Sans" font-size="11" font-weight="normal" fill="#979797">
                <tspan x="285" y="138">$(this).click()</tspan>
            </text>
            <text id="position:-relative" sketch:type="MSTextLayer" font-family="Open Sans" font-size="11" font-weight="normal" fill="#FFFFFF">
                <tspan x="12.5" y="55.9970703">position: relative</tspan>
            </text>
        </g>
    </g>
</svg>