<?xml version="1.0" encoding="utf-8"?>
<!-- Generator: Adobe Illustrator 18.1.1, SVG Export Plug-In . SVG Version: 6.00 Build 0)  -->
<svg version="1.1" id="Layer_1" xmlns="http://www.w3.org/2000/svg" xmlns:xlink="http://www.w3.org/1999/xlink" x="0px" y="0px"
	 viewBox="0 0 3929.3 1500" enable-background="new 0 0 3929.3 1500" xml:space="preserve">
<g>
	<path fill="#FFFFFF" d="M672.4,914.8V570H445.6c-3.9,8.8-12.7,15-22.9,15c-13.8,0-25-11.2-25-25s11.2-25,25-25
		c10.3,0,19.1,6.2,22.9,15h246.8v364.8h272c2.5-5.8,7.1-10.4,12.9-12.9V766.2v-4H849.1c-3.9,8.8-12.7,15-22.9,15
		c-13.8,0-25-11.2-25-25s11.2-25,25-25c10.3,0,19.1,6.2,22.9,15h128.2V454.6H739.2v-227c-5.8-2.5-10.4-7.1-12.9-12.9h-297v152.6
		h128.2c3.9-8.8,12.7-15,22.9-15c13.8,0,25,11.2,25,25s-11.2,25-25,25c-10.3,0-19.1-6.2-22.9-15H409.3V214.7H299v194.2v53.2V580
		H126.5v117.8c5.8,2.5,10.4,7.1,12.9,12.9h171.3h10H502c3.9-8.8,12.7-15,22.9-15c13.8,0,25,11.2,25,25c0,10.3-6.2,19.1-15,22.9
		v171.3h137.5V914.8z"/>
	<path fill="#FFFFFF" d="M692.4,1087.4h151.1h214.2v231.2h392.5v-91c-5.8-2.5-10.4-7.1-12.9-12.9h-19h-5.8h-176.8v-267
		c-8.8-3.9-15-12.7-15-22.9c0-13.8,11.2-25,25-25s25,11.2,25,25c0,10.3-6.2,19.1-15,22.9v247h156.8h5.8h19
		c2.5-5.8,7.1-10.4,12.9-12.9V1069V832.1v-69.8h-180.3c-3.9,8.8-12.7,15-22.9,15c-13.8,0-25-11.2-25-25c0-10.3,6.2-19.1,15-22.9
		V454.6H997.3v287.6v24v135.7c8.8,3.9,15,12.7,15,22.9c0,13.8-11.2,25-25,25c-10.3,0-19.1-6.2-22.9-15h-272L692.4,1087.4
		L692.4,1087.4z"/>
	<path fill="#FFFFFF" d="M726.2,194.7c3.9-8.8,12.7-15,22.9-15c13.8,0,25,11.2,25,25c0,10.3-6.2,19.1-15,22.9v207h218.2V293.7h194.2
		V144.2h-100.9c-3.9,8.8-12.7,15-22.9,15c-13.8,0-25-11.2-25-25c0-10.3,6.2-19.1,15-22.9V0h-496v194.7H726.2z"/>
	<path fill="#FFFFFF" d="M1070.6,124.2h120.9v182.6l0,0v6.9H997.3v120.9H1257v294.7c5.8,2.5,10.4,7.1,12.9,12.9h180.3v-21.6V511.2
		V185.5h206.3c2.5-5.8,7.1-10.4,12.9-12.9V0h-611.7v111.3C1063.4,113.8,1068,118.5,1070.6,124.2z"/>
	<path fill="#FFFFFF" d="M508.8,1095.9H330.6v87.3v171.1H171c-3.9,8.8-12.7,15-22.9,15c-13.8,0-25-11.2-25-25s11.2-25,25-25
		c10.3,0,19.1,6.2,22.9,15h139.7v-151.1V934.8H158.1V1063c8.8,3.9,15,12.7,15,22.9c0,13.8-11.2,25-25,25s-25-11.2-25-25
		c0-10.3,6.2-19.1,15-22.9V914.8h172.6V730.7H139.4c-3.9,8.8-12.7,15-22.9,15c-13.8,0-25-11.2-25-25c0-10.3,6.2-19.1,15-22.9V281.1
		c-8.8-3.9-15-12.7-15-22.9c0-13.8,11.2-25,25-25s25,11.2,25,25c0,10.3-6.2,19.1-15,22.9V560H279v-97.9v-53.2V194.7h242.7V0H0v1500
		h521.7v-391.2C516,1106.3,511.4,1101.7,508.8,1095.9z"/>
	<path fill="#FFFFFF" d="M705.3,1338.7c-3.9,8.8-12.7,15-22.9,15c-13.8,0-25-11.2-25-25s11.2-25,25-25c10.3,0,19.1,6.2,22.9,15
		h332.3v-211.2H843.5H672.4V934.8H514.8V743.6c-5.8-2.5-10.4-7.1-12.9-12.9H330.6v345.2h178.2c3.9-8.8,12.7-15,22.9-15
		c13.8,0,25,11.2,25,25c0,10.3-6.2,19.1-15,22.9V1500h495.9v-161.3H705.3z"/>
	<path fill="#FFFFFF" d="M1669.4,1319.6v-104.9h-186.3c-2.5,5.8-7.1,10.4-12.9,12.9v111h-412.5V1500h611.7v-170.4L1669.4,1319.6
		L1669.4,1319.6z"/>
	<path fill="#FFFFFF" d="M2000,0h-310.6v172.6c8.8,3.9,15,12.7,15,22.9c0,13.8-11.2,25-25,25c-10.3,0-19.1-6.2-22.9-15h-186.3v305.7
		v37.5h219.2v181.6c8.8,3.9,15,12.7,15,22.9c0,13.8-11.2,25-25,25s-25-11.2-25-25c0-10.3,6.2-19.1,15-22.9V568.7h-199.2v151.9v21.6
		V832v237v112.9c5.8,2.5,10.4,7.1,12.9,12.9h186.3v-220c-8.8-3.9-15-12.7-15-22.9c0-13.8,11.2-25,25-25c10.3,0,19.1,6.2,22.9,15
		h171.3V597.4V413.1h-128.2c-3.9,8.8-12.7,15-22.9,15c-13.8,0-25-11.2-25-25s11.2-25,25-25c10.3,0,19.1,6.2,22.9,15h148.2v204.3
		v364.5h-191.3c-2.5,5.8-7.1,10.4-12.9,12.9v334.8h184.2v-179.3c-8.8-3.9-15-12.7-15-22.9c0-13.8,11.2-25,25-25s25,11.2,25,25
		c0,10.3-6.2,19.1-15,22.9v199.3h-10h-10h-184.2V1500H2000V0z"/>
	<polygon fill="#FFFFFF" points="1057.7,-240.6 788,-240.6 788,-220.6 1037.7,-220.6 1037.7,0 1057.7,0 	"/>
	<polygon fill="#FFFFFF" points="541.7,-170.1 272,-170.1 272,-150.1 521.7,-150.1 521.7,0 541.7,0 	"/>
	<rect x="521.7" y="1500" fill="#FFFFFF" width="20" height="48.4"/>
	<rect x="1037.7" y="1500" fill="#FFFFFF" width="20" height="59.9"/>
	<rect x="1669.4" y="1500" fill="#FFFFFF" width="20" height="48.4"/>
	<polygon fill="#FFFFFF" points="1689.4,-179.3 1419.7,-179.3 1419.7,-159.3 1669.4,-159.3 1669.4,0 1689.4,0 	"/>
</g>
<g>
	<path fill="#FFFFFF" d="M3256.9,584.8v344.8h226.8c3.9-8.8,12.7-15,22.9-15c13.8,0,25,11.2,25,25s-11.2,25-25,25
		c-10.3,0-19.1-6.2-22.9-15h-246.8V584.8h-272c-2.5,5.8-7.1,10.4-12.9,12.9v135.7v4h128.2c3.9-8.8,12.7-15,22.9-15
		c13.8,0,25,11.2,25,25s-11.2,25-25,25c-10.3,0-19.1-6.2-22.9-15H2952V1045h238.1v227c5.8,2.5,10.4,7.1,12.9,12.9h297v-152.6h-128.2
		c-3.9,8.8-12.7,15-22.9,15c-13.8,0-25-11.2-25-25c0-13.8,11.2-25,25-25c10.3,0,19.1,6.2,22.9,15H3520v172.6h110.3v-194.2v-53.2
		V919.6h172.5V801.8c-5.8-2.5-10.4-7.1-12.9-12.9h-171.3h-10h-181.3c-3.9,8.8-12.7,15-22.9,15c-13.8,0-25-11.2-25-25
		c0-10.3,6.2-19.1,15-22.9V584.7h-137.5V584.8z"/>
	<path fill="#FFFFFF" d="M3236.9,412.2h-151.1h-214.2V181h-392.5v91c5.8,2.5,10.4,7.1,12.9,12.9h19h5.8h176.8v267
		c8.8,3.9,15,12.7,15,22.9c0,13.8-11.2,25-25,25s-25-11.2-25-25c0-10.3,6.2-19.1,15-22.9v-247h-156.8h-5.8h-19
		c-2.5,5.8-7.1,10.4-12.9,12.9v112.8v236.9v69.8h180.3c3.9-8.8,12.7-15,22.9-15c13.8,0,25,11.2,25,25c0,10.3-6.2,19.1-15,22.9V1045
		H2932V757.4v-24V597.7c-8.8-3.9-15-12.7-15-22.9c0-13.8,11.2-25,25-25c10.3,0,19.1,6.2,22.9,15h272V412.2L3236.9,412.2z"/>
	<path fill="#FFFFFF" d="M3203.1,1304.9c-3.9,8.8-12.7,15-22.9,15c-13.8,0-25-11.2-25-25c0-10.3,6.2-19.1,15-22.9v-207H2952v140.9
		h-194.2v149.5h100.9c3.9-8.8,12.7-15,22.9-15c13.8,0,25,11.2,25,25c0,10.3-6.2,19.1-15,22.9v111.3h496v-194.7H3203.1z"/>
	<path fill="#FFFFFF" d="M2858.7,1375.4h-120.9v-182.6l0,0v-6.9H2932V1065h-259.7V770.3c-5.8-2.5-10.4-7.1-12.9-12.9h-180.3V779
		v209.4v325.7h-206.3c-2.5,5.8-7.1,10.4-12.9,12.9v172.6h611.7v-111.3C2865.9,1385.8,2861.3,1381.1,2858.7,1375.4z"/>
	<path fill="#FFFFFF" d="M3420.5,403.7h178.2v-87.3V145.3h159.6c3.9-8.8,12.7-15,22.9-15c13.8,0,25,11.2,25,25s-11.2,25-25,25
		c-10.3,0-19.1-6.2-22.9-15h-139.7v151.1v248.4h152.6V436.6c-8.8-3.9-15-12.7-15-22.9c0-13.8,11.2-25,25-25s25,11.2,25,25
		c0,10.3-6.2,19.1-15,22.9v148.2h-172.6v184.1h171.3c3.9-8.8,12.7-15,22.9-15c13.8,0,25,11.2,25,25c0,10.3-6.2,19.1-15,22.9v416.7
		c8.8,3.9,15,12.7,15,22.9c0,13.8-11.2,25-25,25c-13.8,0-25-11.2-25-25c0-10.3,6.2-19.1,15-22.9V939.6h-152.5v97.9v53.2v214.2
		h-242.7v194.7h521.7V-0.4l-521.7,0v391.2C3413.3,393.3,3417.9,397.9,3420.5,403.7z"/>
	<path fill="#FFFFFF" d="M3224,160.9c3.9-8.8,12.7-15,22.9-15c13.8,0,25,11.2,25,25s-11.2,25-25,25c-10.3,0-19.1-6.2-22.9-15h-332.3
		v211.2h194.1h171.1v172.7h157.6V756c5.8,2.5,10.4,7.1,12.9,12.9h171.3V423.7h-178.2c-3.9,8.8-12.7,15-22.9,15
		c-13.8,0-25-11.2-25-25c0-10.3,6.2-19.1,15-22.9V-0.4l-495.9,0v161.3H3224z"/>
	<path fill="#FFFFFF" d="M2259.9,180v104.9h186.3c2.5-5.8,7.1-10.4,12.9-12.9V161h412.5V-0.4l-611.7,0V170L2259.9,180L2259.9,180z"
		/>
	<path fill="#FFFFFF" d="M1929.3,1499.6h310.6V1327c-8.8-3.9-15-12.7-15-22.9c0-13.8,11.2-25,25-25c10.3,0,19.1,6.2,22.9,15h186.3
		V988.4v-37.5h-219.2V769.3c-8.8-3.9-15-12.7-15-22.9c0-13.8,11.2-25,25-25s25,11.2,25,25c0,10.3-6.2,19.1-15,22.9v161.6h199.2V779
		v-21.6v-89.8v-237V317.7c-5.8-2.5-10.4-7.1-12.9-12.9h-186.3v220c8.8,3.9,15,12.7,15,22.9c0,13.8-11.2,25-25,25
		c-10.3,0-19.1-6.2-22.9-15h-171.3v344.5v184.3h128.2c3.9-8.8,12.7-15,22.9-15c13.8,0,25,11.2,25,25c0,13.8-11.2,25-25,25
		c-10.3,0-19.1-6.2-22.9-15h-148.2V902.2V537.7H2227c2.5-5.8,7.1-10.4,12.9-12.9V190h-184.2v179.3c8.8,3.9,15,12.7,15,22.9
		c0,13.8-11.2,25-25,25s-25-11.2-25-25c0-10.3,6.2-19.1,15-22.9V170h10h10h184.2V-0.4h-310.6V1499.6z"/>
	<polygon fill="#FFFFFF" points="2871.6,1740.2 3141.3,1740.2 3141.3,1720.2 2891.6,1720.2 2891.6,1499.6 2871.6,1499.6 	"/>
	<polygon fill="#FFFFFF" points="3387.6,1669.7 3657.3,1669.7 3657.3,1649.7 3407.6,1649.7 3407.6,1499.6 3387.6,1499.6 	"/>
	<rect x="3387.6" y="-48.8" fill="#FFFFFF" width="20" height="48.4"/>
	<rect x="2871.6" y="-60.3" fill="#FFFFFF" width="20" height="59.9"/>
	<rect x="2239.9" y="-48.8" fill="#FFFFFF" width="20" height="48.4"/>
	<polygon fill="#FFFFFF" points="2239.9,1678.9 2509.6,1678.9 2509.6,1658.9 2259.9,1658.9 2259.9,1499.6 2239.9,1499.6 	"/>
</g>
</svg>
