<?xml version="1.0" encoding="utf-8"?>
<!-- Generator: Adobe Illustrator 18.0.0, SVG Export Plug-In . SVG Version: 6.00 Build 0)  -->
<!DOCTYPE svg PUBLIC "-//W3C//DTD SVG 1.1//EN" "http://www.w3.org/Graphics/SVG/1.1/DTD/svg11.dtd">
<svg version="1.1" id="Layer_1" xmlns="http://www.w3.org/2000/svg" xmlns:xlink="http://www.w3.org/1999/xlink" x="0px" y="0px"
	 viewBox="0 0 177 71.2" enable-background="new 0 0 177 71.2" xml:space="preserve">
<path fill="none" stroke="#FFFFFF" stroke-width="3" stroke-linecap="round" stroke-linejoin="round" stroke-miterlimit="1" d="
	M16.8,1.5c1.3,18.8,1.6,37.6,0.7,56.4 M6.2,48.7c14.3,3.8,30,2.2,43-4.8c3.3-1.8,6.5-3.9,8.4-7.1c3.2-5.2,2.3-12.1-0.6-17.5
	C52.2,10.1,42.2,4.4,32,2.9S11.1,3.7,1.5,7.6 M63.6,39.4c2.3,0.2,4.7-0.4,6.6-1.7c0.7-0.5,1.5-1.3,1.3-2.1c-0.1-0.8-0.9-1.3-1.7-1.5
	c-1.6-0.4-3.3,0.3-4.4,1.4c-1.2,1.2-1.8,2.9-1.6,4.5c0.2,1.6,1.1,3.2,2.4,4.1c2.3,1.6,5.5,1.2,7.9-0.1 M77.9,35.4c1,3.1,2.4,6.1,4,9
	c0.4-2.8,1.4-5.6,3.1-7.9 M90.9,40.6c2.3-0.1,4.5-0.7,6.5-1.7c0.4-0.2,0.9-0.5,1.1-0.9c0.3-0.6,0-1.3-0.4-1.7
	c-0.7-0.7-1.7-1-2.7-0.8c-1,0.2-1.8,0.7-2.5,1.4c-1.1,1.1-1.9,2.5-1.9,4c-0.1,1.5,0.6,3.1,1.9,3.9c1.1,0.7,2.5,0.9,3.7,0.7
	s2.5-0.8,3.6-1.5 M107.3,8.7c0,12.2,0.1,24.4,0.1,36.6 M131.3,69.7c0.4-12.5,0.8-25.1-0.2-37.6 M132.6,45.4c2.5,0,5.1-0.2,7.3-1.5
	s3.7-3.9,3.1-6.3c-0.6-2.4-3.1-3.9-5.6-4.3c-3.1-0.5-6.5,0.5-8.8,2.6 M148.8,39.3c1.5,0.3,3.1,0.6,4.6,0.5s3.1-0.6,4.3-1.6
	c0.6-0.6,1.1-1.4,1-2.3c-0.1-1.1-1.2-2-2.3-2.2s-2.3,0.2-3.3,0.7c-1.4,0.8-2.7,2-3.3,3.5c-1,2.6,0.2,5.9,2.6,7.2
	c2.5,1.3,5.9,0.5,7.4-1.8 M166.7,34.3c0.1,4,0.2,8.1,0.4,12.1c0.8-3-0.5-6.3,0.8-9.2c0.6-1.4,1.8-2.5,3.2-3.2s2.9-0.9,4.5-0.8
	 M120.1,34.3c-1.8,0.4-3.5,1.3-4.7,2.7c-1.2,1.4-1.9,3.3-1.5,5.1c0.4,1.8,1.8,3.4,3.7,3.7c1.4,0.2,2.9-0.4,3.9-1.4
	c1-1,1.5-2.4,1.6-3.9c0.1-0.9-0.1-1.9-0.5-2.7c-0.4-0.8-1.2-1.5-2.1-1.7"/>
<path fill="none" stroke="#373737" stroke-width="3" stroke-linecap="round" stroke-linejoin="round" stroke-miterlimit="10" d="
	M11.5-159.4c0.6,18.4,1.2,36.8,1.8,55.2 M6.8-111.1c13.5,1.8,27.4,0.2,40.1-4.7c3.5-1.3,6.9-2.9,9.9-5.2c2.9-2.3,5.4-5.3,6.5-8.9
	c2.1-7-1.6-14.8-7.4-19.3c-5.7-4.5-13.1-6.5-20.4-7.6c-10.6-1.7-21.4-2.1-32-1.1c-3.4,0.3-7.1,0.9-9.2,3.6 M144.1-119
	c1.9,0.5,4,0.4,5.9-0.2c1-0.4,2.1-1.1,2.1-2.2c0-1-1.1-1.8-2.1-1.9c-2.1-0.3-4.1,1.3-5,3.2c-0.5,1.1-0.7,2.4-0.2,3.5
	c0.4,0.8,1.3,1.4,2.1,1.7c0.9,0.4,2,0.6,3,0.4c1-0.2,2-0.7,2.6-1.5 M161.1-123c0.5,3.2,0.4,6.4-0.2,9.5c0.4-1.9,0.6-3.8,0.5-5.8
	c0-0.7-0.1-1.4,0.2-2.1c0.4-0.9,1.4-1.4,2.4-1.6c1.7-0.3,3.4,0.3,4.7,1.4 M118.2-122.4c-2.5-0.7-5.3-1.1-7.5,0.2
	c-2.3,1.2-3.4,4.6-1.8,6.5c1.5,1.7,4.3,1.5,6.1,0.2c1.8-1.3,2.9-3.4,3.9-5.4c-1.4,1.9-1.2,4.7-0.1,6.8c1.1,2.1,2.9,3.8,4.5,5.5
	c5.1,5.4,9.3,12.1,10.5,19.5c1.2,7.4-1,15.6-6.6,20.5c-3.3,2.9-7.6,4.5-12,4.8s-8.8-0.6-12.8-2.3c-3.3-1.4-6.4-3.5-8.4-6.4
	c-3.1-4.6-3-11.1,0.1-15.8c3-4.7,8.7-7.4,14.2-7.3 M136-114c0.9-1.3,1.4-2.8,1.4-4.4c0-1.5-0.6-3.1-1.7-4.2
	c-1.1-1.1-2.8-1.6-4.3-1.2c-1.8,0.5-3.1,2.2-3.6,4c-0.5,1.8-0.4,3.7-0.3,5.5c0-3.1,0-6.3,0-9.4 M102.2-112.4
	c-0.7-3.8-1.2-7.7-1.6-11.5 M92.2-123.1c-0.1-1.4-1.4-2.6-2.7-2.6c-1.4,0-2.7,1.1-2.9,2.4c-0.1,0.9,0.3,2,1.1,2.5
	c0.8,0.5,1.7,0.5,2.6,0.7c1.5,0.3,2.9,1.4,3.6,2.8c0.5,0.9,0.6,2.1,0,3c-0.7,1-2,1.3-3.2,1.3c-0.9,0-1.9,0-2.7-0.4
	c-0.8-0.4-1.5-1.1-1.6-2.1 M80.6-114.1c-1.8,1-3.7,1.6-5.8,1.7c-2,0-4.1-0.7-5.6-2c-1.5-1.3-2.4-3.4-2.2-5.4
	c0.1-1.1,0.6-2.2,1.2-3.2c1.2-1.8,3.2-3.2,5.4-3.3c0.8-0.1,1.7,0.1,2.4,0.5c0.7,0.4,1.2,1.2,1.2,2.1c0,0.7-0.4,1.4-0.9,1.9
	c-0.5,0.5-1.1,0.8-1.8,1.1c-3.1,1.5-6.4,2.4-9.8,2.6"/>
<path fill="none" stroke="#373737" stroke-width="3" stroke-linecap="round" stroke-linejoin="round" stroke-miterlimit="10" d="
	M96.7-134.2c1.1-0.4,2.3-0.7,3.5-0.8c1.2-0.1,2.4,0.1,3.4,0.8c1,0.7,1.6,1.9,1.4,3c-0.2,1-1,1.9-1.9,2.3c-0.9,0.5-2,0.6-3.1,0.6
	c-1.2,0-2.5-0.2-3.5-1c-0.5-0.4-0.9-1.1-0.8-1.7c0.1-0.6,0.1-1,0.8-1.5"/>
</svg>
