<?xml version="1.0" encoding="utf-8"?>
<!-- Generator: Adobe Illustrator 18.1.1, SVG Export Plug-In . SVG Version: 6.00 Build 0)  -->
<svg version="1.1" id="Layer_1" xmlns="http://www.w3.org/2000/svg" xmlns:xlink="http://www.w3.org/1999/xlink" x="0px" y="0px"
	 viewBox="14.1 82.9 1471.6 325.5" enable-background="new 14.1 82.9 1471.6 325.5" xml:space="preserve">
<g>
	<g>
		<path fill="#FFFFFF" d="M1483.9,321L750,406.9L16,321l52.4-209.6c3.8-15,19.2-27,34.6-27h646.9h646.9c15.4,0,30.8,12,34.5,27
			L1483.9,321z M750.5,188.6c12.6,0,22.9-10.3,22.9-22.9c0-12.6-10.3-22.9-22.9-22.9c-12.6,0-22.9,10.3-22.9,22.9
			S737.9,188.6,750.5,188.6z"/>
		<path fill="none" stroke="#E0E7EC" stroke-width="3" stroke-miterlimit="10" d="M1483.9,321L750,406.9L16,321l52.4-209.6
			c3.8-15,19.2-27,34.6-27h646.9h646.9c15.4,0,30.8,12,34.5,27L1483.9,321z M750.5,188.6c12.6,0,22.9-10.3,22.9-22.9
			c0-12.6-10.3-22.9-22.9-22.9c-12.6,0-22.9,10.3-22.9,22.9S737.9,188.6,750.5,188.6z"/>
	</g>
</g>
</svg>
