<?xml version="1.0" encoding="utf-8"?>
<!-- Generator: Adobe Illustrator 18.1.1, SVG Export Plug-In . SVG Version: 6.00 Build 0)  -->
<svg version="1.1" id="Layer_1" xmlns="http://www.w3.org/2000/svg" xmlns:xlink="http://www.w3.org/1999/xlink" x="0px" y="0px"
	 viewBox="1607.8 51.5 437.5 492.2" enable-background="new 1607.8 51.5 437.5 492.2" xml:space="preserve">
<g>
	<g>
		<polygon fill="#FFFFFF" points="1608.4,543 1608.4,52.3 1826.5,66.3 2044.5,52.3 2044.5,543 		"/>
		<path fill="#E1E8ED" d="M2043.9,53v489.4h-434.8V53l217.2,14h0.1h0.1L2043.9,53 M2045.2,51.5l-218.7,14.1l-218.7-14.1v492.1h437.5
			L2045.2,51.5L2045.2,51.5z"/>
	</g>
</g>
<g>
	<path fill="#FFFFFF" d="M1608.4,543v-20.1c0-11.1,9-20.1,20.1-20.1h396c11.1,0,20.1,9,20.1,20.1V543H1608.4z"/>
	<path fill="#E1E8ED" d="M2024.5,503.5c10.8,0,19.4,8.8,19.4,19.4v19.4H2019h-409.9v-19.4c0-10.8,8.8-19.4,19.4-19.4L2024.5,503.5
		 M2024.5,502.3h-396c-11.4,0-20.7,9.3-20.7,20.7v20.7H2019h26.3V523C2045.2,511.5,2035.9,502.3,2024.5,502.3L2024.5,502.3z"/>
</g>
</svg>
