<?xml version="1.0" encoding="utf-8"?>
<!-- Generator: Adobe Illustrator 18.1.1, SVG Export Plug-In . SVG Version: 6.00 Build 0)  -->
<svg version="1.1" id="Layer_1" xmlns="http://www.w3.org/2000/svg" xmlns:xlink="http://www.w3.org/1999/xlink" x="0px" y="0px"
	 viewBox="0 0 338.5 146.2" enable-background="new 0 0 338.5 146.2" xml:space="preserve">
<path fill="#FFFFFF" d="M249.2,142.8V3.3h79.3c4.7,0,8.5,3.8,8.5,8.5v102.5c0,15.7-12.8,28.5-28.5,28.5H249.2z"/>
<path fill="#F7F7F7" d="M308.5,144.3h-88.1v-37.7h118.1v7.7C338.5,130.9,325.1,144.3,308.5,144.3z"/>
<path fill="#E1E8ED" d="M328.5,4.8c3.9,0,7,3.1,7,7v102.5c0,14.9-12.1,27-27,27h-57.8V4.8H328.5 M328.5,1.8h-80.8v142.5h60.8
	c16.6,0,30-13.4,30-30V11.8C338.5,6.3,334.1,1.8,328.5,1.8L328.5,1.8z"/>
<g>
	<linearGradient id="SVGID_1_" gradientUnits="userSpaceOnUse" x1="132.1422" y1="2.454" x2="132.1422" y2="144.9721">
		<stop  offset="0" style="stop-color:#1E3B57"/>
		<stop  offset="1" style="stop-color:#182E4A"/>
	</linearGradient>
	<path fill="url(#SVGID_1_)" d="M11.1,144.2c-5,0-9.1-3.6-9.1-8V10c0-4.4,4.1-8,9.1-8h248.1c1.7,0,3,1.3,3,3v136.2c0,1.7-1.3,3-3,3
		H11.1z"/>
	<path fill="#132533" d="M259.3,4c0.6,0,1,0.4,1,1v136.2c0,0.6-0.4,1-1,1H11.1c-3.9,0-7.1-2.7-7.1-6V10c0-3.3,3.2-6,7.1-6H259.3
		 M259.3,0H11.1C5,0,0,4.5,0,10v126.2c0,5.5,5,10,11.1,10h248.1c2.8,0,5-2.2,5-5V5C264.3,2.2,262,0,259.3,0L259.3,0z"/>
</g>
</svg>
