<?xml version="1.0" encoding="utf-8"?>
<!-- Generator: Adobe Illustrator 18.1.1, SVG Export Plug-In . SVG Version: 6.00 Build 0)  -->
<svg version="1.1" id="Layer_1" xmlns="http://www.w3.org/2000/svg" xmlns:xlink="http://www.w3.org/1999/xlink" x="0px" y="0px"
	 viewBox="1162.2 0.1 564.5 588.3" enable-background="new 1162.2 0.1 564.5 588.3" xml:space="preserve">
<g>
	<g>
		<g>
			<path fill="#273644" d="M1638.7,244.6l60.4-75.5c5.2-6.2,5.2-15.3,0.3-21.5l-21-27.5l-21-27.2c-4.9-6.5-13.5-8.6-21-5.2
				l-88.4,39.2L1638.7,244.6z"/>
			<path fill="#273644" d="M1584.5,437.8l95.7,14.5c8.1,1.3,15.8-3.1,18.9-10.7l13.2-31.9l13-31.9c3.1-7.5,0.8-16.1-6-20.7l-78.1-57
				L1584.5,437.8z"/>
			<path fill="#273644" d="M1390.3,487.3l35.3,90c2.9,7.5,10.7,12.2,18.7,10.9l34.2-4.4l34.2-4.7c8.1-1,14.3-7.5,15-15.6l10.4-96.2
				L1390.3,487.3z"/>
			<path fill="#273644" d="M1250.2,343.9l-60.4,75.5c-5.2,6.2-5.2,15.3-0.3,21.5l21,27.5l21.2,27.2c4.9,6.5,13.5,8.6,21,5.2
				l88.4-39.2L1250.2,343.9z"/>
			<path fill="#273644" d="M1304.4,151l-95.7-14.5c-8.1-1.3-15.8,3.1-18.9,10.7l-13.2,31.9l-13,31.9c-3.1,7.5-0.8,16.1,6,20.7
				l78.1,57L1304.4,151z"/>
			<path fill="#273644" d="M1498.6,101.2l-35.3-90c-2.9-7.5-10.7-12.2-18.7-10.9l-34.2,4.4l-34.2,4.7c-8.1,1-14.3,7.5-15.1,15.6
				l-10.4,96.2L1498.6,101.2z"/>
		</g>
		<path fill="#273644" d="M1611.5,422c-70.6,92.1-202.3,109.7-294.6,39.4s-109.7-202.3-39.4-294.6s202.3-109.7,294.6-39.4
			S1682,329.6,1611.5,422z M1516.8,199.5c-52.4-40-127.3-30.1-167.3,22.3s-30.1,127.3,22.3,167.3s127.3,30.1,167.3-22.3
			S1569.2,239.4,1516.8,199.5z"/>
	</g>
</g>
</svg>
