<?xml version="1.0" encoding="utf-8"?>
<!-- Generator: Adobe Illustrator 18.1.1, SVG Export Plug-In . SVG Version: 6.00 Build 0)  -->
<svg version="1.1" id="Layer_1" xmlns="http://www.w3.org/2000/svg" xmlns:xlink="http://www.w3.org/1999/xlink" x="0px" y="0px"
	 viewBox="0 0 80 80" enable-background="new 0 0 80 80" xml:space="preserve">
<g>
	<path fill="#23313F" d="M49.3,13.3L46.4,1.6c-0.2-1-1.1-1.6-2.1-1.6H40h-4.3c-1,0-1.9,0.7-2.1,1.6l-2.9,11.7H49.3z"/>
	<path fill="#23313F" d="M27.7,14.6L17.4,8.4c-0.8-0.5-2-0.4-2.7,0.3l-3,3l-3,3c-0.7,0.7-0.8,1.8-0.3,2.7l6.2,10.3L27.7,14.6z"/>
	<path fill="#23313F" d="M13.3,30.7L1.6,33.6c-1,0.2-1.6,1.1-1.6,2.1V40v4.3c0,1,0.7,1.9,1.6,2.1l11.7,2.8V30.7z"/>
	<path fill="#23313F" d="M14.6,52.3L8.4,62.6c-0.5,0.8-0.4,2,0.3,2.7l3,3l3,3c0.7,0.7,1.8,0.8,2.7,0.3l10.3-6.2L14.6,52.3z"/>
	<path fill="#23313F" d="M30.7,66.7l2.8,11.7c0.2,1,1.1,1.6,2.1,1.6H40h4.3c1,0,1.9-0.7,2.1-1.6l2.8-11.7H30.7L30.7,66.7z"/>
	<path fill="#23313F" d="M52.3,65.4l10.3,6.2c0.8,0.5,2,0.4,2.7-0.3l3-3l3-3c0.7-0.7,0.8-1.8,0.3-2.7l-6.2-10.3L52.3,65.4z"/>
	<path fill="#23313F" d="M66.7,49.3l11.7-2.8c1-0.2,1.6-1.1,1.6-2.1V40v-4.3c0-1-0.7-1.9-1.6-2.1l-11.7-2.9V49.3z"/>
	<path fill="#23313F" d="M65.4,27.7l6.2-10.3c0.5-0.8,0.4-2-0.3-2.7l-3-3l-3-3c-0.7-0.7-1.8-0.8-2.7-0.3l-10.3,6.2L65.4,27.7z"/>
	<path fill="#23313F" d="M69.4,40c0,16.2-13.2,29.4-29.4,29.4S10.6,56.2,10.6,40S23.8,10.6,40,10.6S69.4,23.8,69.4,40z M40,23.3
		c-9.2,0-16.7,7.5-16.7,16.7S30.8,56.7,40,56.7S56.7,49.2,56.7,40S49.2,23.3,40,23.3z"/>
</g>
</svg>
