<?xml version="1.0" encoding="utf-8"?>
<!-- Generator: Adobe Illustrator 18.1.1, SVG Export Plug-In . SVG Version: 6.00 Build 0)  -->
<svg version="1.1" id="Layer_1" xmlns="http://www.w3.org/2000/svg" xmlns:xlink="http://www.w3.org/1999/xlink" x="0px" y="0px"
	 viewBox="526.5 331 749.3 749.1" enable-background="new 526.5 331 749.3 749.1" xml:space="preserve">
<g>
	<g>
		<path fill="#273644" d="M919.8,440.7l-54.7-99.1c-4.7-8.3-14.3-12.2-23.1-9.9l-39.2,10.7L763.9,353c-9.4,2.6-15.3,10.9-15,20.2
			l2.6,113.1L919.8,440.7z"/>
		<path fill="#273644" d="M727.1,505.2l-108.7-31.4c-9.1-2.9-18.9,1.3-23.3,9.4l-20.2,35l-19.9,35c-4.7,8.3-3.4,18.7,3.6,24.9
			l81.9,78.1L727.1,505.2z"/>
		<path fill="#273644" d="M636.3,687L537,741.4c-8.3,4.7-12.2,14.3-9.9,23.3l10.7,38.9l10.7,38.9c2.6,9.4,10.9,15.3,20.2,15.1
			l113.1-2.9L636.3,687z"/>
		<path fill="#273644" d="M700.9,879.4l-31.4,108.7c-2.9,9.1,1.3,18.9,9.4,23.3l35.3,20.2l35.3,20.2c8.3,4.7,18.7,3.4,24.9-3.6
			l78.1-81.9L700.9,879.4z"/>
		<path fill="#273644" d="M882.7,970.5l54.7,99.1c4.7,8.3,14.3,12.2,23.1,9.9l39.2-10.7l38.9-10.7c9.4-2.6,15.3-10.9,15.1-20.2
			l-2.9-113.1L882.7,970.5L882.7,970.5z"/>
		<path fill="#273644" d="M1075.1,905.9l108.7,31.4c9.1,2.9,18.9-1.3,23.3-9.4l20.2-35.3l20.2-35.3c4.7-8.3,3.4-18.7-3.6-24.9
			l-81.9-78.1L1075.1,905.9z"/>
		<path fill="#273644" d="M1166.2,724.1l99.1-54.7c8.3-4.7,12.2-14.3,9.9-23.1l-10.7-39.2l-10.7-38.9c-2.6-9.4-10.9-15.3-20.2-15.1
			l-113.1,2.6L1166.2,724.1z"/>
		<path fill="#273644" d="M1101.6,531.4l31.4-108.7c2.9-9.1-1.3-18.9-9.4-23.3l-35.3-20.2l-35-20.2c-8.3-4.7-18.7-3.4-24.9,3.6
			l-78,82L1101.6,531.4z"/>
		<path fill="#273644" d="M1167.8,633.4c40,147.3-47.2,299-194.5,338.7c-147.3,40-299-47.2-338.7-194.5
			c-39.7-147.3,47.2-299,194.5-338.7S1128.1,486,1167.8,633.4z M855.2,535.3c-93.9,25.4-149.3,122.2-123.9,216
			s122.1,149.3,216,123.9s149.3-122.1,123.9-216S949.1,509.9,855.2,535.3z"/>
	</g>
</g>
</svg>
