<?xml version="1.0" encoding="utf-8"?>
<!-- Generator: Adobe Illustrator 18.0.0, SVG Export Plug-In . SVG Version: 6.00 Build 0)  -->
<!DOCTYPE svg PUBLIC "-//W3C//DTD SVG 1.1//EN" "http://www.w3.org/Graphics/SVG/1.1/DTD/svg11.dtd">
<svg version="1.1" id="Layer_1" xmlns="http://www.w3.org/2000/svg" xmlns:xlink="http://www.w3.org/1999/xlink" x="0px" y="0px"
	 viewBox="0 0 300 300" enable-background="new 0 0 300 300" xml:space="preserve">
<path fill="#FFFFFF" d="M293.8,126l-38.9-9.5c-1.9-5.9-4.3-11.6-7.1-17l20.8-34.2c2-3.2,1.5-7.4-1.2-10L256,43.9l-11.4-11.4
	c-2.7-2.7-6.8-3.2-10-1.2l-34.3,20.8c-5.4-2.8-11-5.1-16.8-7L174,6.2c-0.9-3.7-4.2-6.2-7.9-6.2H150h-16.1c-3.8,0-7,2.6-7.9,6.2
	l-9.5,38.9c-5.9,1.9-11.6,4.2-17,7L65.3,31.4c-3.2-2-7.4-1.5-10,1.2L43.9,43.9L32.6,55.3c-2.7,2.7-3.2,6.8-1.2,10l20.7,34.2
	c-2.8,5.4-5.2,11.1-7,17L6.2,126c-3.7,0.9-6.2,4.2-6.2,7.9V150v16.1c0,3.8,2.6,7,6.2,7.9l38.9,9.5c1.9,5.9,4.3,11.6,7.1,17
	l-20.8,34.2c-2,3.2-1.5,7.4,1.2,10L44,256.1l11.4,11.4c2.7,2.7,6.8,3.2,10,1.2l34.3-20.8c5.4,2.8,11,5.1,16.8,7l9.5,38.9
	c0.9,3.7,4.2,6.2,7.9,6.2H150h16.1c3.8,0,7-2.6,7.9-6.2l9.5-38.9c5.9-1.9,11.6-4.3,17-7.1l34.2,20.8c3.2,2,7.4,1.5,10-1.2l11.4-11.4
	l11.4-11.4c2.7-2.7,3.2-6.8,1.2-10l-20.8-34.3c2.8-5.4,5.1-11,7-16.8l38.9-9.5c3.7-0.9,6.2-4.2,6.2-7.9V150v-16.1
	C300,130.1,297.4,126.9,293.8,126z M150,212.5c-34.5,0-62.5-28-62.5-62.5s28-62.5,62.5-62.5s62.5,28,62.5,62.5
	S184.5,212.5,150,212.5z"/>
</svg>
