<?xml version="1.0" encoding="utf-8"?>
<!-- Generator: Adobe Illustrator 18.1.1, SVG Export Plug-In . SVG Version: 6.00 Build 0)  -->
<svg version="1.1" id="Layer_1" xmlns="http://www.w3.org/2000/svg" xmlns:xlink="http://www.w3.org/1999/xlink" x="0px" y="0px"
	 viewBox="0 690 1080 1080" enable-background="new 0 690 1080 1080" xml:space="preserve">
<g>
	<path fill="#F0F3F4" d="M664.9,870l-38.5-157.8c-3.2-13.2-15.2-22.2-28.4-22.2H540h-57.9c-13.8,0-25.2,9.4-28.4,22.2L415.1,870
		H664.9z"/>
	<path fill="#F0F3F4" d="M374.1,887.3l-138.9-84.2c-11.5-7.2-26.6-5.5-36,4.2l-41.1,40.8l-40.8,41.1c-9.7,9.7-11.5,24.5-4.2,36
		l84.2,138.9L374.1,887.3z"/>
	<path fill="#F0F3F4" d="M180,1105.1l-157.8,38.5C9,1146.9,0,1158.7,0,1172.1v57.9v57.9c0,13.8,9.4,25.2,22.2,28.4l157.8,38.5
		V1105.1z"/>
	<path fill="#F0F3F4" d="M197.3,1395.9l-84.2,138.9c-7.2,11.5-5.5,26.6,4.2,36l41.1,41.1l41.1,41.1c9.7,9.7,24.5,11.5,36,4.2
		l138.9-84.2L197.3,1395.9z"/>
	<path fill="#F0F3F4" d="M415.1,1590l38.5,157.8c3.2,13.2,15.2,22.2,28.4,22.2H540h57.9c13.8,0,25.2-9.4,28.4-22.2l38.5-157.8H415.1
		L415.1,1590z"/>
	<path fill="#F0F3F4" d="M705.9,1572.7l138.9,84.2c11.5,7.2,26.6,5.5,36-4.2l41.1-41.1l41.1-41.1c9.7-9.7,11.5-24.5,4.2-36
		l-84.2-138.9L705.9,1572.7z"/>
	<path fill="#F0F3F4" d="M900,1354.9l157.8-38.5c13.2-3.2,22.2-15.2,22.2-28.4V1230v-57.9c0-13.8-9.4-25.2-22.2-28.4L900,1105.1
		V1354.9z"/>
	<path fill="#F0F3F4" d="M882.7,1064.1l84.2-138.9c7.2-11.5,5.5-26.6-4.2-36l-41.1-41.1L880.6,807c-9.7-9.7-24.5-11.5-36-4.2
		l-138.9,84.2L882.7,1064.1z"/>
	<path fill="#F0F3F4" d="M936.4,1230c0,218.8-177.5,396.4-396.4,396.4S143.6,1448.8,143.6,1230S321.2,833.6,540,833.6
		S936.4,1011.2,936.4,1230z M540,1005c-124.2,0-225,100.8-225,225s100.8,225,225,225s225-100.8,225-225S664.2,1005,540,1005z"/>
</g>
</svg>
