<?xml version="1.0" encoding="utf-8"?>
<!-- Generator: Adobe Illustrator 18.1.1, SVG Export Plug-In . SVG Version: 6.00 Build 0)  -->
<svg version="1.1" id="Layer_1" xmlns="http://www.w3.org/2000/svg" xmlns:xlink="http://www.w3.org/1999/xlink" x="0px" y="0px"
	 viewBox="995.6 0 564.4 588.3" enable-background="new 995.6 0 564.4 588.3" xml:space="preserve">
<g>
	<g>
		<path fill="#FFFFFF" d="M1472,244.5l60.4-75.5c5.2-6.2,5.2-15.3,0.3-21.5l-21-27.5l-21-27.2c-4.9-6.5-13.5-8.6-21-5.2l-88.4,39.2
			L1472,244.5z"/>
		<path fill="#FFFFFF" d="M1417.8,437.7l95.7,14.5c8,1.3,15.8-3.1,18.9-10.6l13.2-31.9l13-31.9c3.1-7.5,0.8-16.1-6-20.7l-78.1-57
			L1417.8,437.7z"/>
		<path fill="#FFFFFF" d="M1223.6,487.2l35.3,90c2.9,7.5,10.6,12.2,18.7,10.9l34.2-4.4l34.2-4.7c8-1,14.3-7.5,15-15.6l10.4-96.2
			L1223.6,487.2z"/>
		<path fill="#FFFFFF" d="M1083.6,343.8l-60.4,75.5c-5.2,6.2-5.2,15.3-0.3,21.5l21,27.5l21.3,27.2c4.9,6.5,13.5,8.6,21,5.2
			l88.4-39.2L1083.6,343.8z"/>
		<path fill="#FFFFFF" d="M1137.8,150.9l-95.7-14.5c-8-1.3-15.8,3.1-18.9,10.6l-13.2,31.9l-13,31.9c-3.1,7.5-0.8,16.1,6,20.7
			l78.1,57L1137.8,150.9z"/>
		<path fill="#FFFFFF" d="M1332,101.1l-35.3-90c-2.9-7.5-10.6-12.2-18.7-10.9l-34.2,4.4l-34.2,4.7c-8,1-14.3,7.5-15,15.6l-10.4,96.2
			L1332,101.1z"/>
	</g>
	<path fill="#FFFFFF" d="M1444.8,421.9c-70.5,92.1-202.3,109.7-294.6,39.4s-109.7-202.3-39.4-294.6S1313,57,1405.4,127.3
		S1515.3,329.6,1444.8,421.9z M1350.1,199.4c-52.4-39.9-127.3-30.1-167.3,22.3S1152.8,349,1205.2,389s127.3,30.1,167.3-22.3
		S1402.5,239.3,1350.1,199.4z"/>
</g>
</svg>
