<?xml version="1.0" encoding="utf-8"?>
<!-- Generator: Adobe Illustrator 18.1.1, SVG Export Plug-In . SVG Version: 6.00 Build 0)  -->
<svg version="1.1" id="Layer_1" xmlns="http://www.w3.org/2000/svg" xmlns:xlink="http://www.w3.org/1999/xlink" x="0px" y="0px"
	 viewBox="360 331 749.2 748.9" enable-background="new 360 331 749.2 748.9" xml:space="preserve">
<g>
	<path fill="#FFFFFF" d="M753.2,440.6l-54.7-99.1c-4.7-8.3-14.3-12.2-23.1-9.9l-39.2,10.6l-38.9,10.6c-9.3,2.6-15.3,10.9-15,20.2
		l2.6,113.1L753.2,440.6z"/>
	<path fill="#FFFFFF" d="M560.5,505.1l-108.6-31.4c-9.1-2.9-18.9,1.3-23.3,9.3l-20.2,35l-20,35c-4.7,8.3-3.4,18.7,3.6,24.9
		l81.9,78.1L560.5,505.1z"/>
	<path fill="#FFFFFF" d="M469.8,686.9l-99.3,54.5c-8.3,4.7-12.2,14.3-9.9,23.3l10.6,38.9l10.6,38.9c2.6,9.3,10.9,15.3,20.2,15
		l113.1-2.9L469.8,686.9z"/>
	<path fill="#FFFFFF" d="M534.4,879.3L503,987.9c-2.9,9.1,1.3,18.9,9.3,23.3l35.3,20.2l35.3,20.2c8.3,4.7,18.7,3.4,24.9-3.6
		l78.1-81.9L534.4,879.3z"/>
	<path fill="#FFFFFF" d="M716.1,970.3l54.7,99.1c4.7,8.3,14.3,12.2,23.1,9.9l39.2-10.6L872,1058c9.3-2.6,15.3-10.9,15-20.2
		l-2.9-113.1L716.1,970.3L716.1,970.3z"/>
	<path fill="#FFFFFF" d="M908.5,905.7l108.6,31.4c9.1,2.9,18.9-1.3,23.3-9.3l20.2-35.3l20.2-35.3c4.7-8.3,3.4-18.7-3.6-24.9
		l-81.9-78.1L908.5,905.7z"/>
	<path fill="#FFFFFF" d="M999.5,724l99.1-54.7c8.3-4.7,12.2-14.3,9.9-23.1l-10.6-39.2l-10.6-38.9c-2.6-9.3-10.9-15.3-20.2-15
		l-113.1,2.6L999.5,724z"/>
	<path fill="#FFFFFF" d="M935,531.3l31.4-108.6c2.9-9.1-1.3-18.9-9.3-23.3l-35.3-20.2l-35-20.2c-8.3-4.7-18.7-3.4-24.9,3.6
		l-78.1,81.9L935,531.3z"/>
	<path fill="#FFFFFF" d="M1001.1,633.2c39.9,147.3-47.2,299-194.5,338.7c-147.3,39.9-299-47.2-338.7-194.5s47.2-299,194.5-338.7
		S961.4,485.9,1001.1,633.2z M688.6,535.2c-93.9,25.4-149.4,122.1-123.9,216c25.4,93.9,122.1,149.4,216,123.9s149.4-122.1,123.9-216
		S782.5,509.8,688.6,535.2z"/>
</g>
</svg>
