<?xml version="1.0" encoding="utf-8"?>
<!-- Generator: Adobe Illustrator 18.1.1, SVG Export Plug-In . SVG Version: 6.00 Build 0)  -->
<svg version="1.1" id="Layer_1" xmlns="http://www.w3.org/2000/svg" xmlns:xlink="http://www.w3.org/1999/xlink" x="0px" y="0px"
	 viewBox="0 0 462.7 416.5" enable-background="new 0 0 462.7 416.5" xml:space="preserve">
<g>
	<g>
		<path fill="#FFFFFF" d="M151.6,169.9l-21.1-38.2c-1.8-3.2-5.5-4.7-8.9-3.8l-15.1,4.1l-15,4.1c-3.6,1-5.9,4.2-5.8,7.8l1,43.6
			L151.6,169.9z"/>
		<path fill="#FFFFFF" d="M77.3,194.8l-41.9-12.1c-3.5-1.1-7.3,0.5-9,3.6l-7.8,13.5l-7.7,13.5c-1.8,3.2-1.3,7.2,1.4,9.6l31.6,30.1
			L77.3,194.8z"/>
		<path fill="#FFFFFF" d="M42.3,264.9L4,285.9c-3.2,1.8-4.7,5.5-3.8,9l4.1,15l4.1,15c1,3.6,4.2,5.9,7.8,5.8l43.6-1.1L42.3,264.9z"/>
		<path fill="#FFFFFF" d="M67.2,339.1l-12.1,41.9c-1.1,3.5,0.5,7.3,3.6,9l13.6,7.8l13.6,7.8c3.2,1.8,7.2,1.3,9.6-1.4l30.1-31.6
			L67.2,339.1z"/>
		<path fill="#FFFFFF" d="M137.3,374.2l21.1,38.2c1.8,3.2,5.5,4.7,8.9,3.8l15.1-4.1l15-4.1c3.6-1,5.9-4.2,5.8-7.8l-1.1-43.6
			L137.3,374.2L137.3,374.2z"/>
		<path fill="#FFFFFF" d="M211.5,349.3l41.9,12.1c3.5,1.1,7.3-0.5,9-3.6l7.8-13.6l7.8-13.6c1.8-3.2,1.3-7.2-1.4-9.6L245,290.9
			L211.5,349.3z"/>
		<path fill="#FFFFFF" d="M246.6,279.2l38.2-21.1c3.2-1.8,4.7-5.5,3.8-8.9l-4.1-15.1l-4.1-15c-1-3.6-4.2-5.9-7.8-5.8l-43.6,1
			L246.6,279.2z"/>
		<path fill="#FFFFFF" d="M221.7,204.9l12.1-41.9c1.1-3.5-0.5-7.3-3.6-9l-13.6-7.8l-13.5-7.8c-3.2-1.8-7.2-1.3-9.6,1.4l-30.1,31.6
			L221.7,204.9z"/>
		<path fill="#FFFFFF" d="M247.2,244.2c15.4,56.8-18.2,115.3-75,130.6c-56.8,15.4-115.3-18.2-130.6-75s18.2-115.3,75-130.6
			S231.9,187.4,247.2,244.2z M126.7,206.4c-36.2,9.8-57.6,47.1-47.8,83.3c9.8,36.2,47.1,57.6,83.3,47.8s57.6-47.1,47.8-83.3
			S162.9,196.6,126.7,206.4z"/>
	</g>
	<g>
		<g>
			<path fill="#FFFFFF" d="M428.8,94.3l23.3-29.1c2-2.4,2-5.9,0.1-8.3l-8.1-10.6L436,35.8c-1.9-2.5-5.2-3.3-8.1-2l-34.1,15.1
				L428.8,94.3z"/>
			<path fill="#FFFFFF" d="M407.9,168.8l36.9,5.6c3.1,0.5,6.1-1.2,7.3-4.1l5.1-12.3l5-12.3c1.2-2.9,0.3-6.2-2.3-8l-30.1-22
				L407.9,168.8z"/>
			<path fill="#FFFFFF" d="M333,187.9l13.6,34.7c1.1,2.9,4.1,4.7,7.2,4.2l13.2-1.7l13.2-1.8c3.1-0.4,5.5-2.9,5.8-6l4-37.1L333,187.9
				z"/>
			<path fill="#FFFFFF" d="M279,132.6l-23.3,29.1c-2,2.4-2,5.9-0.1,8.3l8.1,10.6l8.2,10.5c1.9,2.5,5.2,3.3,8.1,2l34.1-15.1
				L279,132.6z"/>
			<path fill="#FFFFFF" d="M299.9,58.2L263,52.6c-3.1-0.5-6.1,1.2-7.3,4.1l-5.1,12.3l-5,12.3c-1.2,2.9-0.3,6.2,2.3,8l30.1,22
				L299.9,58.2z"/>
			<path fill="#FFFFFF" d="M374.8,39L361.2,4.3c-1.1-2.9-4.1-4.7-7.2-4.2l-13.2,1.7l-13.2,1.8c-3.1,0.4-5.5,2.9-5.8,6l-4,37.1
				L374.8,39z"/>
		</g>
		<path fill="#FFFFFF" d="M418.3,162.7c-27.2,35.5-78,42.3-113.6,15.2s-42.3-78-15.2-113.6s78-42.3,113.6-15.2
			S445.5,127.1,418.3,162.7z M381.8,76.9c-20.2-15.4-49.1-11.6-64.5,8.6c-15.4,20.2-11.6,49.1,8.6,64.5s49.1,11.6,64.5-8.6
			S402,92.3,381.8,76.9z"/>
	</g>
</g>
</svg>
