<?xml version="1.0" encoding="utf-8"?>
<!-- Generator: Adobe Illustrator 18.1.1, SVG Export Plug-In . SVG Version: 6.00 Build 0)  -->
<svg version="1.1" id="Layer_1" xmlns="http://www.w3.org/2000/svg" xmlns:xlink="http://www.w3.org/1999/xlink" x="0px" y="0px"
	 viewBox="166.6 0.1 1666.7 1499.8" enable-background="new 166.6 0.1 1666.7 1499.8" xml:space="preserve">
<g>
	<g>
		<path fill="#273644" d="M712.8,611.9l-76-137.6c-6.5-11.5-19.8-16.9-32.1-13.7l-54.4,14.8l-54,14.8c-13,3.6-21.2,15.1-20.9,28.1
			l3.6,157L712.8,611.9z"/>
		<path fill="#273644" d="M445.2,701.6L294.3,658c-12.6-4-26.3,1.8-32.4,13l-28.1,48.6l-27.7,48.6c-6.5,11.5-4.7,25.9,5,34.6
			l113.8,108.4L445.2,701.6z"/>
		<path fill="#273644" d="M319.1,954l-137.9,75.6c-11.5,6.5-16.9,19.8-13.7,32.4l14.8,54l14.8,54c3.6,13,15.1,21.2,28.1,20.9l157-4
			L319.1,954z"/>
		<path fill="#273644" d="M408.8,1221.2l-43.6,150.9c-4,12.6,1.8,26.3,13,32.4l49,28.1l49,28.1c11.5,6.5,25.9,4.7,34.6-5
			l108.4-113.8L408.8,1221.2z"/>
		<path fill="#273644" d="M661.3,1347.7l76,137.6c6.5,11.5,19.8,16.9,32.1,13.7l54.4-14.8l54-14.8c13-3.6,21.2-15.1,20.9-28.1
			l-4-157L661.3,1347.7L661.3,1347.7z"/>
		<path fill="#273644" d="M928.5,1258l150.9,43.6c12.6,4,26.3-1.8,32.4-13l28.1-49l28.1-49c6.5-11.5,4.7-25.9-5-34.6l-113.8-108.4
			L928.5,1258z"/>
		<path fill="#273644" d="M1054.9,1005.5l137.6-76c11.5-6.5,16.9-19.8,13.7-32.1l-14.8-54.4l-14.8-54c-3.6-13-15.1-21.2-28.1-20.9
			l-157,3.6L1054.9,1005.5z"/>
		<path fill="#273644" d="M965.2,737.9l43.6-150.9c4-12.6-1.8-26.3-13-32.4l-49-28.1l-48.6-28.1c-11.5-6.5-25.9-4.7-34.6,5
			L755.3,617.3L965.2,737.9z"/>
		<path fill="#273644" d="M1057.1,879.5c55.5,204.6-65.5,415.2-270.1,470.3c-204.6,55.5-415.2-65.5-470.3-270.1
			s65.5-415.2,270.1-470.3S1002,674.9,1057.1,879.5z M623.1,743.3C492.7,778.6,415.7,913,451,1043.3s169.6,207.4,300,172.1
			s207.4-169.6,172.1-300S753.5,708,623.1,743.3z"/>
	</g>
	<g>
		<g>
			<path fill="#273644" d="M1711.1,339.6l83.9-104.8c7.2-8.6,7.2-21.2,0.4-29.9l-29.2-38.2l-29.2-37.8c-6.8-9-18.7-11.9-29.2-7.2
				l-122.8,54.4L1711.1,339.6z"/>
			<path fill="#273644" d="M1635.8,607.9l132.9,20.2c11.2,1.8,22-4.3,26.3-14.8l18.4-44.3l18-44.3c4.3-10.4,1.1-22.3-8.3-28.8
				l-108.4-79.2L1635.8,607.9z"/>
			<path fill="#273644" d="M1366.1,676.7l49,125c4,10.4,14.8,16.9,25.9,15.1l47.5-6.1l47.5-6.5c11.2-1.4,19.8-10.4,20.9-21.6
				l14.4-133.6L1366.1,676.7z"/>
			<path fill="#273644" d="M1171.6,477.6l-83.9,104.8c-7.2,8.6-7.2,21.2-0.4,29.9l29.2,38.2l29.5,37.8c6.8,9,18.7,11.9,29.2,7.2
				l122.8-54.4L1171.6,477.6z"/>
			<path fill="#273644" d="M1246.9,209.6L1114,189.4c-11.2-1.8-22,4.3-26.3,14.8l-18.4,44.3l-18,44.3c-4.3,10.4-1.1,22.3,8.3,28.8
				l108.4,79.2L1246.9,209.6z"/>
			<path fill="#273644" d="M1516.6,140.5l-49-125c-4-10.4-14.8-16.9-25.9-15.1l-47.5,6.1l-47.5,6.5c-11.2,1.4-19.8,10.4-20.9,21.6
				l-14.4,133.6L1516.6,140.5z"/>
		</g>
		<path fill="#273644" d="M1673.3,586c-98,127.9-280.9,152.3-409.1,54.7s-152.3-280.9-54.7-409.1c97.6-128.2,280.9-152.3,409.1-54.7
			S1771.2,457.7,1673.3,586z M1541.8,277c-72.7-55.5-176.8-41.8-232.3,31s-41.8,176.8,31,232.3s176.8,41.8,232.3-31
			S1614.6,332.4,1541.8,277z"/>
	</g>
</g>
</svg>
