<?xml version="1.0" encoding="utf-8"?>
<!-- Generator: Adobe Illustrator 18.0.0, SVG Export Plug-In . SVG Version: 6.00 Build 0)  -->
<!DOCTYPE svg PUBLIC "-//W3C//DTD SVG 1.1//EN" "http://www.w3.org/Graphics/SVG/1.1/DTD/svg11.dtd">
<svg version="1.1" id="Layer_1" xmlns="http://www.w3.org/2000/svg" xmlns:xlink="http://www.w3.org/1999/xlink" x="0px" y="0px"
	 viewBox="0 0 106.9 131.8" enable-background="new 0 0 106.9 131.8" xml:space="preserve">
<g>
	<g>
		<path fill="#FFFFFF" d="M64.1,131.8H42.7c-2,0-3.8-1-4.9-2.6L1.1,77c-1.4-2.1-1.4-4.8,0-6.9L48.5,2.6C49.6,1,51.5,0,53.4,0
			s3.8,1,4.9,2.5l47.4,67.5c1.4,2.1,1.4,4.8,0,6.9L69,129.3C67.9,130.8,66.1,131.8,64.1,131.8z M44.8,121.8h17.2L96,73.5L53.4,13
			L10.9,73.5L44.8,121.8z"/>
	</g>
	<g>
		<path fill="#FFFFFF" d="M53.4,60.3c2,0,3.8,1,4.9,2.6l48.4,68.9H94.5c0,0-41.1-58.5-41.1-58.5l-41.1,58.5H0.1l48.4-68.9
			C49.6,61.3,51.5,60.3,53.4,60.3z"/>
	</g>
</g>
</svg>
