<?xml version="1.0" encoding="utf-8"?>
<!-- Generator: Adobe Illustrator 18.1.1, SVG Export Plug-In . SVG Version: 6.00 Build 0)  -->
<svg version="1.1" id="Layer_1" xmlns="http://www.w3.org/2000/svg" xmlns:xlink="http://www.w3.org/1999/xlink" x="0px" y="0px"
	 viewBox="0 0 326.7 77.3" enable-background="new 0 0 326.7 77.3" xml:space="preserve">
<g>
	<path fill="#79878C" d="M32.2,76.3C13.5,76.3,1,63.4,1,44.2C1,24.6,13.3,12,32.2,12c3.5,0,207.9-0.1,207.9-0.1
		c16.1,0,26.5,10.3,26.5,26.3c0,24.5-20.3,26.4-26.5,26.4l-81.4,0c-31.6,0-62,0-69.1,0l-2.2,0l0-1.8c0-0.4,0-0.8,0-1.3v-2.2l0-1
		l152.8,0c17.9,0,20.5-12.7,20.5-20.2c0-6.3-2-11.5-5.9-14.9c-3.6-3.1-8.6-4.8-14.6-4.8c0,0-204.8,0-207.9,0
		c-15.2,0-25,10.2-25,26.1c0,12.4,6.6,25.6,25,25.6h253.6c21.2,0,33.3-11.4,33.3-31.2c0-20.2-11.8-31.3-33.3-31.3l-201,0
		c0-0.4,0-0.7,0-1.1l0-2.5l0-1.9c0-0.1,0-0.8,0-0.9c0,0,195.9-0.1,201-0.1c24.3,0,40,14.8,40,37.7c0,23.5-14.9,37.6-40,37.6H32.2z"
		/>
	<path fill="#5C696D" d="M285.7,2.1c11.3,0,21,3.3,27.9,9.5c7.2,6.5,11.1,15.9,11.1,27.2c0,11.6-3.8,21.1-11.1,27.5
		c-6.8,6-16.5,9.1-27.9,9.1H32.2c-9.2,0-16.9-3.1-22.2-8.8C4.7,60.9,2,53.2,2,44.2C2,35.4,4.7,27.5,9.6,22C15,16.1,22.8,13,32.2,13
		c3.5,0,75.6,0,134.4-0.1l73.5,0c7.3,0,13.5,2.2,18.1,6.3c4.8,4.4,7.4,11,7.4,18.9c0,8.7-2.7,15.4-7.9,19.8
		c-4.4,3.6-10.6,5.6-17.5,5.6l-0.9,0l-12.7,0l-66.9,0c-40.4,0-64,0-70,0l-0.4,0l-0.8,0l0-0.1c0-0.2,0-0.5,0-0.7c0-0.4,0-0.8,0-1.3
		v-2.2c0,0,0,0,0,0h1.2c15.5,0,150.2,0,150.5,0c13.7,0,21.5-7.7,21.5-21.2c0-6.6-2.2-12-6.2-15.6c-3.7-3.3-9-5.1-15.3-5.1l-127.8,0
		c-41.6,0-77.6,0-80.1,0c-15.8,0-26,10.6-26,27.1C6.2,57.3,13,71,32.2,71h253.6c21.8,0,34.3-11.7,34.3-32.2
		c0-10.7-3.2-18.9-9.6-24.5c-5.9-5.2-14.2-7.8-24.7-7.8c-2.7,0-52.6,0-102.4,0l-96.1,0h-1.5c0,0,0-0.1,0-0.1c0-0.3,0-0.7,0-1.2
		c0-0.5,0-0.9,0-1.3l0-0.6c0-0.4,0-0.8,0-1.2l1.5,0c14.9,0,59.3,0,102.4-0.1C236,2.1,280.8,2.1,285.7,2.1 M285.7,0.1
		c-9.6,0-167.6,0.1-198.4,0.1c-2.3,0-2.8,0-3.5,0c0,0.7,0,1.4,0,1.9c0,0.7,0,1.6,0,1.9c0,0.7,0,1.8,0,2.5c0,0.7,0,1.5,0,2.1
		c0.6,0,1.2,0,3.5,0c30.4,0,193.6,0,198.4,0c19.3,0,32.3,9.4,32.3,30.3c0,20-12.2,30.2-32.3,30.2c-99.3,0-153.3,0-253.6,0
		c-11.9,0-24-6.4-24-24.6c0-14.4,8.3-25.1,24-25.1c5.6,0,183.5,0,207.9,0c11.2,0,19.6,5.9,19.6,18.7c0,14.9-9.7,19.2-19.5,19.2
		c-0.4,0-135,0-150.5,0c-1.2,0-1.6,0-3.2,0c0,0.5,0,1.3,0,2c0,0.6,0,1.5,0,2.2c0,1,0,1.5,0,2.1c0,0.5,0,1.4,0,2.1c1.6,0,2,0,2.8,0
		c0.1,0,0.3,0,0.4,0c7.2,0,38.1,0,70,0c36,0,73.4,0,79.7,0c0.5,0,0.8,0,0.9,0c13.6,0,27.5-7.1,27.5-27.4c0-18-12.3-27.3-27.5-27.3
		C216.4,10.9,37.9,11,32.2,11C11,11,0,25.9,0,44.2c0,18.9,11.9,33.1,32.2,33.1c100.2,0,154.2,0,253.6,0c23.3,0,41-12.7,41-38.6
		C326.7,13.8,309,0.1,285.7,0.1L285.7,0.1z"/>
</g>
</svg>
