<?xml version="1.0" encoding="utf-8"?>
<!-- Generator: Adobe Illustrator 18.1.1, SVG Export Plug-In . SVG Version: 6.00 Build 0)  -->
<svg version="1.1" id="Layer_1" xmlns="http://www.w3.org/2000/svg" xmlns:xlink="http://www.w3.org/1999/xlink" x="0px" y="0px"
	 viewBox="0 0 17 254.1" enable-background="new 0 0 17 254.1" xml:space="preserve">
<rect x="1.6" y="28.8" fill="#EFA545" width="13.7" height="205.1"/>
<g>
	<path fill="#F5A1C5" d="M6.8,254.1c-2.9,0-5.2-2.3-5.2-5.2v-8.8h13.7v8.8c0,2.9-2.3,5.2-5.2,5.2H6.8z"/>
	<path fill="#D489B3" d="M1.6,248.9c0,2.9,2.3,5.2,5.2,5.2h1.7c-2.1,0-2.3-3.7-2.3-3.7v-10.2H1.6V248.9z"/>
</g>
<rect x="1.6" y="227.8" fill="#B6B5B5" width="13.7" height="12.2"/>
<rect x="10.8" y="26.5" fill="#F8B143" width="4.6" height="201.2"/>
<rect x="6.2" y="26.5" fill="#EFA545" width="4.6" height="201.2"/>
<rect x="1.6" y="26.5" fill="#D1892E" width="4.6" height="201.2"/>
<g>
	<path fill="#EEDEC4" d="M10.8,26.5h1.7c0-0.2,0-0.6-0.1-1C11.6,12.1,9.2,3.1,9.2,3.1c-0.4-1.6-1.1-1.6-1.5,0c0,0-2.3,9.1-3.2,22.4
		c0,0.5-0.1,0.8-0.1,1h1.7c0,1.3,1,2.3,2.3,2.3C9.7,28.8,10.8,27.8,10.8,26.5"/>
	<path fill="#DBC6A9" d="M6.2,26.5L6.2,26.5L8,7.5L7.7,7C7.5,7,7.4,6.9,7.3,6.7C6.8,6.3,6.4,7.3,6,7.3c-0.3,0-0.4,0-0.6-0.1
		c-1.3,4.7-3,10-3.8,18.1c-0.1,0.5-0.1,0.9-0.1,1.1h0c0,1.3,1,2.3,2.3,2.3C5.2,28.8,6.2,27.7,6.2,26.5"/>
	<path fill="#FBEFDD" d="M15.4,26.5L15.4,26.5c0-0.2,0-0.6-0.1-1.1c-1.6-13.1-3.8-18.6-3.8-18.6C11,7.4,10.3,7.8,9.7,7.7
		C9.4,7.6,9.3,7.4,9.2,7.2l1.6,19.3h0c0,1.3,1,2.3,2.3,2.3C14.3,28.8,15.4,27.7,15.4,26.5"/>
	<path fill="#504F4F" d="M11.5,6.8c-0.9-3.4-1.6-5.4-1.6-5.4C9.5,0.5,9,0,8.6,0l0,0v0l0,0C8.1,0,7.6,0.4,7.3,1.3
		c0,0-0.8,2.2-1.8,5.9l0,0c0.2,0.1,0.4,0.2,0.6,0.1C6.4,7.3,6.8,6.5,7.2,7c0.2,0.2,0.4,0.4,0.6,0.5l0.2,0c0.6,0.1,0.8-0.4,1-0.8
		C9,6.8,9.1,7,9.2,7.2c0.1,0.2,0.3,0.4,0.6,0.5C10.4,7.9,11,7.4,11.5,6.8"/>
</g>
<polygon fill="#DBC6A9" points="11.1,1.5 11.1,1.5 11.1,1.5 "/>
<g>
	<path fill="#504F4F" d="M8.6,0L8.6,0L8,7.5c0.6,0.1,0.8-0.4,1-0.8C9,6.8,9.1,7,9.2,7.2L8.6,0z"/>
	<path fill="#686869" d="M9.8,7.7c0.6,0.2,1.2-0.4,1.7-1c-0.9-3.4-1.6-5.4-1.6-5.4C9.5,0.5,9,0,8.6,0l0.6,7.2
		C9.3,7.4,9.4,7.6,9.8,7.7"/>
	<path fill="#343433" d="M7.8,7.4l0.2,0L8.6,0l0,0C8.1,0,7.6,0.4,7.3,1.3c0,0-0.8,2.2-1.8,5.9l0,0c0.2,0.1,0.4,0.2,0.6,0.1
		C6.5,7.3,6.8,6.5,7.2,7C7.4,7.1,7.6,7.4,7.8,7.4"/>
</g>
<polygon fill="#9FA4A6" points="1.6,227.8 1.6,227.8 1.6,240 8.5,240 5.7,227.8 "/>
<g>
	<path fill="#818281" d="M15,225.8H2c-1.1,0-2,0.9-2,2c0,1.1,0.9,2,2,2h13c1.1,0,2-0.9,2-2C17,226.6,16.1,225.8,15,225.8"/>
	<path fill="#818281" d="M15,238H2c-1.1,0-2,0.9-2,2c0,1.1,0.9,2,2,2h13c1.1,0,2-0.9,2-2C17,238.9,16.1,238,15,238"/>
	<path fill="#818281" d="M15.3,230.2H1.6c-0.6,0-1,0.4-1,1c0,0.6,0.4,1,1,1h13.7c0.6,0,1-0.4,1-1C16.3,230.7,15.9,230.2,15.3,230.2"
		/>
	<path fill="#818281" d="M15.3,235.5H1.6c-0.6,0-1,0.4-1,1c0,0.6,0.4,1,1,1h13.7c0.6,0,1-0.4,1-1C16.3,235.9,15.9,235.5,15.3,235.5"
		/>
</g>
</svg>
